<svg width="80" height="88" viewBox="0 0 80 88" fill="none" xmlns="http://www.w3.org/2000/svg">
<path d="M11.0592 57.538L18.6306 50.0083V23.9344H24.1786V44.4911L31.7501 36.9617V16.4089H11.063L11.0592 57.538Z" fill="black" fill-opacity="0.4"/>
<path d="M52.4372 36.9812H34.439L26.8869 44.4913V44.5106H44.8696V50.0277H21.3196L13.7675 57.5382V57.5571L52.4372 57.5532V36.9812Z" fill="black" fill-opacity="0.4"/>
<path d="M68.9379 2.67407L61.3703 10.1996V21.9303H49.574L42.0064 29.4558H68.9379V2.67407Z" fill="black" fill-opacity="0.4"/>
<path d="M39.3177 29.4364L46.8852 21.9109V7.52551H61.3511L68.9186 0H39.3177V29.4364Z" fill="black" fill-opacity="0.4"/>
<path d="M0.000396729 84.9142H0.972652V87.9706H1.51391V84.9142H2.48617V84.4368H0.000396729V84.9142Z" fill="black" fill-opacity="0.4"/>
<path d="M7.46085 87.1805H8.80839L9.08386 87.9707H9.65181L8.35998 84.4373H7.90926L6.61743 87.9707H7.18771L7.46085 87.1805ZM8.13094 85.1617H8.14062L8.65479 86.7057H7.61677L8.13094 85.1617Z" fill="black" fill-opacity="0.4"/>
<path d="M15.0307 85.2005C15.0876 85.1278 15.1623 85.0674 15.2548 85.0186C15.3457 84.9716 15.4548 84.9466 15.5813 84.9435C15.7535 84.9466 15.8997 84.9958 16.02 85.0913C16.1353 85.1913 16.215 85.3125 16.2587 85.4548H16.829C16.7721 85.1594 16.6359 84.9112 16.4197 84.7107C16.2034 84.5122 15.9241 84.411 15.5813 84.408C15.3016 84.4114 15.0687 84.4776 14.8818 84.6069C14.6918 84.7346 14.5537 84.88 14.4674 85.0432C14.414 85.129 14.3742 85.2409 14.3479 85.3802C14.3235 85.5191 14.3111 85.7938 14.3111 86.2043C14.3111 86.6083 14.3235 86.8815 14.3479 87.0234C14.361 87.0992 14.3773 87.1623 14.3966 87.2123C14.4179 87.2608 14.4415 87.3116 14.4674 87.3651C14.5537 87.5282 14.6918 87.6721 14.8818 87.7964C15.0687 87.9256 15.3016 87.9933 15.5813 87.9999C15.9438 87.9933 16.244 87.8714 16.4831 87.634C16.7203 87.3947 16.8422 87.0984 16.8487 86.7445V86.0246H15.5863V86.5313H16.3102V86.7156C16.3071 86.9368 16.2371 87.1154 16.1005 87.2512C15.9639 87.3935 15.791 87.4643 15.5813 87.4643C15.4544 87.4643 15.3457 87.4378 15.2548 87.3843C15.1623 87.3389 15.0872 87.28 15.0307 87.2073C14.9607 87.1315 14.9147 87.0319 14.8918 86.9092C14.8659 86.7864 14.8528 86.5514 14.8528 86.2039C14.8528 85.8565 14.8659 85.6199 14.8918 85.4937C14.9147 85.374 14.9607 85.2763 15.0307 85.2005Z" fill="black" fill-opacity="0.4"/>
<path d="M24.3868 84.4368V87.9706H26.6559V87.4639H24.9254V84.4368H24.3868Z" fill="black" fill-opacity="0.4"/>
<path d="M32.193 84.4368H31.6544V87.9702H32.193V84.4368Z" fill="black" fill-opacity="0.4"/>
<path d="M39.5492 86.9476L37.9405 84.4368H37.4337V87.9706H37.9726V85.4598H37.9819L39.5879 87.9706H40.0974V84.4368H39.5589V86.9476H39.5492Z" fill="black" fill-opacity="0.4"/>
<path d="M47.6089 84.9435V84.4368H45.3402V87.9706H47.6089V87.4639H45.8787V86.4266H47.3555V85.9515H45.8787V84.9435H47.6089Z" fill="black" fill-opacity="0.4"/>
<path d="M57.6426 87.9706V84.4368H57.104V85.9515H55.6977V84.4368H55.1591V87.9706H55.6977V86.4266H57.104V87.9706H57.6426Z" fill="black" fill-opacity="0.4"/>
<path d="M65.1541 84.9435V84.4368H62.8853V87.9706H65.1541V87.4639H63.4239V86.4266H64.901V85.9515H63.4239V84.9435H65.1541Z" fill="black" fill-opacity="0.4"/>
<path d="M72.6175 85.4233C72.6078 85.097 72.4898 84.8457 72.2639 84.6695C72.077 84.5145 71.836 84.4368 71.54 84.4368H70.153V87.9702H70.6915V86.4605H71.3787L72.1122 87.9702H72.7533L71.9296 86.402C72.3819 86.2296 72.6109 85.903 72.6175 85.4233ZM71.9594 85.8111C71.8584 85.9242 71.7075 85.9823 71.5059 85.9854H70.6919V84.9142H71.5353C71.7075 84.9142 71.8391 84.9508 71.93 85.0231C72.0453 85.1054 72.1045 85.2389 72.1079 85.4229C72.1079 85.5767 72.0584 85.706 71.9594 85.8111Z" fill="black" fill-opacity="0.4"/>
<path d="M77.6896 87.9706H79.9583V87.4639H78.2282V86.4266H79.7049V85.9515H78.2282V84.9435H79.9583V84.4368H77.6896V87.9706Z" fill="black" fill-opacity="0.4"/>
<path d="M5.12552 77.8459C4.84696 78.3787 4.40165 78.6453 3.7892 78.6453C3.17675 78.6453 2.69469 78.4549 2.34339 78.0744C1.9921 77.6939 1.81645 77.1853 1.81645 76.5485C1.81645 75.9118 1.9921 75.4031 2.34339 75.0226C2.69469 74.6421 3.17675 74.4517 3.7892 74.4517C4.40126 74.4517 4.84696 74.7183 5.12552 75.2508H7.25496C7.00465 74.4898 6.56282 73.8946 5.92948 73.4652C5.29614 73.0362 4.57227 72.8215 3.75825 72.8215C2.70746 72.8215 1.81838 73.1728 1.09103 73.8753C0.363677 74.5779 0 75.4685 0 76.5481C0 77.6277 0.363677 78.5188 1.09103 79.2209C1.818 79.9234 2.70707 80.2747 3.75825 80.2747C4.57227 80.2747 5.29614 80.0604 5.92948 79.631C6.56282 79.202 7.00465 78.6069 7.25496 77.8455H5.12552V77.8459Z" fill="black" fill-opacity="0.4"/>
<path d="M19.6558 76.5481C19.6558 75.4685 19.2956 74.5775 18.5756 73.8753C17.8552 73.1732 16.968 72.8215 15.9138 72.8215C14.8591 72.8215 13.9685 73.1728 13.2415 73.8753C12.5142 74.5779 12.1509 75.4685 12.1509 76.5481C12.1509 77.6277 12.5142 78.5203 13.2415 79.2263C13.9685 79.9323 14.8576 80.2851 15.9087 80.2851C16.9595 80.2851 17.8467 79.9323 18.5705 79.2263C19.2936 78.5207 19.6558 77.6277 19.6558 76.5481ZM17.3124 78.074C16.9607 78.4549 16.491 78.645 15.9029 78.645C15.3149 78.645 14.8452 78.4545 14.4935 78.074C14.1422 77.6935 13.9666 77.1849 13.9666 76.5481C13.9666 75.9114 14.1422 75.4027 14.4935 75.0222C14.8448 74.6417 15.3145 74.4513 15.9029 74.4513C16.491 74.4513 16.9607 74.6417 17.3124 75.0222C17.6637 75.4031 17.8393 75.9114 17.8393 76.5481C17.8393 77.1849 17.6633 77.6939 17.3124 78.074Z" fill="black" fill-opacity="0.4"/>
<path d="M33.278 72.9255H31.2322L29.1341 77.9498L27.0255 72.9255H24.9792V80.2125H26.7644V76.1019L28.4659 80.2125H29.7914L31.4929 76.1019V80.2125H33.278V72.9255Z" fill="black" fill-opacity="0.4"/>
<path d="M40.8037 77.3788H41.9102C42.4182 77.3788 42.8584 77.3045 43.2306 77.1556C43.6028 77.0067 43.8829 76.8147 44.0709 76.5797C44.4257 76.123 44.6033 75.649 44.6033 75.1577C44.6033 74.5417 44.3665 74.0158 43.8934 73.5798C43.4198 73.1439 42.759 72.9258 41.9102 72.9258H39.0186V80.2128H40.8037V77.3788ZM40.8037 74.2751H41.9102C42.1748 74.2751 42.3868 74.3582 42.547 74.5244C42.7072 74.6906 42.7869 74.9034 42.7869 75.1627C42.7869 75.422 42.7087 75.6317 42.552 75.7905C42.3953 75.9498 42.1818 76.0291 41.9102 76.0291H40.8037V74.2751Z" fill="black" fill-opacity="0.4"/>
<path d="M51.4717 78.988H54.1021L54.5095 80.213H56.4196L53.8832 72.9053H51.7119L49.165 80.213H51.0647L51.4717 78.988ZM52.7867 75.0433L53.653 77.6383H51.9201L52.7867 75.0433Z" fill="black" fill-opacity="0.4"/>
<path d="M68.0272 80.2125V72.9048H66.2421V77.5036L63.2569 72.9048H61.4718V80.2125H63.2569V75.6141L66.2421 80.2125H68.0272Z" fill="black" fill-opacity="0.4"/>
<path d="M76.5761 76.2162L75.1671 72.9255H73.1421L75.6785 77.8667V80.2125H77.4633V77.8667L80.0001 72.9255H77.9751L76.5761 76.2162Z" fill="black" fill-opacity="0.4"/>
</svg>
