<svg width="80" height="112" viewBox="0 0 80 112" fill="none" xmlns="http://www.w3.org/2000/svg">
<path d="M17.003 82.4731L28.569 73.5557L12.5212 61.1851V79.5048L16.6859 82.7178L17.003 82.4731Z" fill="black" fill-opacity="0.4"/>
<path d="M67.4782 45.8506L31.5396 73.5552L30.7981 74.1301L30.0565 74.705L18.1734 83.8626H41.935L42.6766 83.2922L43.4228 82.7173L67.4782 64.1659V45.8506Z" fill="black" fill-opacity="0.4"/>
<path d="M17.003 59.5491L28.569 50.6321L12.5212 38.2615V56.5812L16.6905 59.7897L17.003 59.5491Z" fill="black" fill-opacity="0.4"/>
<path d="M42.6766 60.3649L43.4181 59.7901L67.4782 41.2431V22.9282L31.5396 50.6324L30.7981 51.2073L30.0519 51.7777L18.1734 60.9353H41.935L42.6766 60.3649Z" fill="black" fill-opacity="0.4"/>
<path d="M17.003 36.6218L28.569 27.7092L12.5212 15.3386V33.6539L16.6859 36.8669L17.003 36.6218Z" fill="black" fill-opacity="0.4"/>
<path d="M41.9352 38.012L42.6767 37.4416L43.423 36.8668L67.4784 18.3197V0L31.5398 27.7047L30.7983 28.2795L30.0521 28.8544L18.1736 38.012H41.9352Z" fill="black" fill-opacity="0.4"/>
<path d="M1.34036 103.787C1.75917 104.179 2.25864 104.482 2.83834 104.697C3.41804 104.91 4.05464 105.018 4.7486 105.018C5.40852 105.018 6.03067 104.897 6.61457 104.654C7.19847 104.411 7.69375 104.023 8.09996 103.489L6.77964 102.592C6.48349 102.956 6.16403 103.221 5.82125 103.386C5.47847 103.552 5.12498 103.635 4.76121 103.635C4.29577 103.635 3.87463 103.554 3.49827 103.393C3.12144 103.231 2.79777 103.008 2.52727 102.725C2.25631 102.443 2.04692 102.107 1.89908 101.719C1.75077 101.331 1.67662 100.906 1.67662 100.445C1.67662 100.017 1.75077 99.6164 1.89908 99.2443C2.04692 98.8726 2.25631 98.5469 2.52727 98.2679C2.79823 97.9889 3.12191 97.7706 3.49827 97.6128C3.87463 97.4551 4.29577 97.3762 4.76121 97.3762C5.07415 97.3762 5.38522 97.4328 5.69395 97.546C6.00269 97.6592 6.32262 97.8855 6.65234 98.2251L7.89615 97.3517C7.4475 96.8584 6.96294 96.5086 6.44247 96.3027C5.922 96.0963 5.35721 95.9934 4.74766 95.9934C4.0537 95.9934 3.41666 96.1008 2.83743 96.3147C2.25773 96.5291 1.75823 96.8343 1.33942 97.2305C0.920622 97.6266 0.592303 98.1057 0.355386 98.6676C0.11847 99.2296 0 99.8543 0 100.541C0 101.213 0.11847 101.823 0.355386 102.373C0.593236 102.924 0.921095 103.394 1.34036 103.787Z" fill="black" fill-opacity="0.4"/>
<path d="M12.5747 103.787C12.9935 104.179 13.493 104.482 14.0727 104.697C14.6524 104.911 15.289 105.018 15.983 105.018C16.6853 105.01 17.3284 104.895 17.9123 104.672C18.4962 104.45 18.9999 104.141 19.4229 103.744C19.8464 103.348 20.1761 102.875 20.413 102.325C20.6499 101.775 20.7684 101.165 20.7684 100.494C20.7684 99.8064 20.6499 99.1834 20.413 98.6255C20.1761 98.0675 19.8459 97.5903 19.4229 97.1941C18.9999 96.7979 18.4962 96.4967 17.9123 96.2904C17.3284 96.084 16.6853 95.9851 15.983 95.9931C15.289 95.9931 14.6519 96.1005 14.0727 96.3144C13.493 96.5288 12.994 96.834 12.5747 97.2302C12.1559 97.6264 11.8276 98.1054 11.5911 98.6673C11.3542 99.2293 11.2358 99.854 11.2358 100.541C11.2358 101.212 11.3542 101.823 11.5911 102.373C11.8276 102.924 12.1555 103.395 12.5747 103.787ZM13.133 99.2444C13.2808 98.8728 13.4902 98.547 13.7612 98.2681C14.0321 97.9891 14.3558 97.7707 14.7321 97.613C15.1085 97.4552 15.5296 97.3764 15.9951 97.3764C16.4605 97.3764 16.8835 97.4552 17.2646 97.613C17.6451 97.7707 17.9711 97.9891 18.2421 98.2681C18.513 98.547 18.7224 98.8728 18.8707 99.2444C19.0186 99.6165 19.0927 100.017 19.0927 100.445C19.0927 100.906 19.0186 101.331 18.8707 101.719C18.7224 102.107 18.513 102.443 18.2421 102.726C17.9711 103.009 17.6456 103.231 17.2646 103.393C16.884 103.555 16.4605 103.635 15.9951 103.635C15.5296 103.635 15.1085 103.555 14.7321 103.393C14.3553 103.231 14.0317 103.009 13.7612 102.726C13.4902 102.443 13.2808 102.107 13.133 101.719C12.9847 101.331 12.9105 100.906 12.9105 100.445C12.911 100.017 12.9851 99.6165 13.133 99.2444Z" fill="black" fill-opacity="0.4"/>
<path d="M34.542 104.8V96.2119H32.1304L29.7057 102.228L27.3062 96.2119H24.869V104.8H26.3926V97.6673H26.4178L29.147 104.8H30.2644L32.9936 97.6673H33.0188V104.8H34.542Z" fill="black" fill-opacity="0.4"/>
<path d="M40.724 101.246H41.8666C42.3404 101.246 42.7952 101.214 43.2312 101.149C43.6668 101.084 44.0502 100.961 44.3799 100.779C44.7096 100.597 44.9722 100.34 45.1671 100.009C45.3616 99.6771 45.4591 99.2404 45.4591 98.6985C45.4591 98.2217 45.3681 97.8233 45.1863 97.5038C45.0039 97.1843 44.7609 96.9298 44.4564 96.7395C44.1518 96.5497 43.7983 96.4142 43.3963 96.3331C42.9943 96.2525 42.5773 96.2119 42.146 96.2119H39.1243V104.8H40.724V101.246ZM40.724 97.5221H41.8666C42.0783 97.5221 42.2985 97.5341 42.527 97.5586C42.7555 97.5831 42.9626 97.6375 43.1491 97.7221C43.3352 97.8073 43.4877 97.9285 43.6062 98.0862C43.7246 98.244 43.7839 98.4561 43.7839 98.723C43.7839 99.014 43.7181 99.2408 43.5871 99.4022C43.456 99.5639 43.2867 99.6851 43.0792 99.7658C42.8716 99.8469 42.6455 99.8955 42.4001 99.9115C42.1544 99.928 41.9174 99.936 41.6894 99.936H40.7245L40.724 97.5221Z" fill="black" fill-opacity="0.4"/>
<path d="M52.771 96.2119H51.3873L47.4772 104.8H49.2672L50.0796 102.835H53.9766L54.8142 104.8H56.6424L52.771 96.2119ZM50.6257 101.525L52.0346 98.0314L53.4183 101.525H50.6257Z" fill="black" fill-opacity="0.4"/>
<path d="M68.2833 104.8V96.2119H66.6837V102.592H66.6585L62.3044 96.2119H60.1843V104.8H61.784V98.2132H61.8092L66.2523 104.8H68.2833Z" fill="black" fill-opacity="0.4"/>
<path d="M75.0237 104.8H76.6233V101.125L79.9999 96.2119H78.0957L75.8618 99.6325L73.6525 96.2119H71.6472L75.0237 101.125V104.8Z" fill="black" fill-opacity="0.4"/>
<path d="M1.14125 108.559H0.0126343V108.027H2.89805V108.559H1.76944V111.967H1.1417L1.14125 108.559Z" fill="black" fill-opacity="0.4"/>
<path d="M9.07709 111.086H7.51288L7.19621 111.967H6.53442L8.03382 108.027H8.55709L10.0565 111.967H9.3975L9.07709 111.086ZM8.89893 110.556L8.30199 108.835H8.29126L7.69429 110.556H8.89893Z" fill="black" fill-opacity="0.4"/>
<path d="M15.7858 109.797H17.2511V110.6C17.2437 110.995 17.1024 111.325 16.8267 111.592C16.5497 111.857 16.2008 111.993 15.7802 112C15.4561 111.993 15.1851 111.917 14.9682 111.773C14.7476 111.634 14.5872 111.474 14.4874 111.291C14.4571 111.232 14.43 111.175 14.4053 111.121C14.3825 111.065 14.3638 110.995 14.3489 110.91C14.3205 110.752 14.3065 110.447 14.3065 109.997C14.3065 109.539 14.3205 109.233 14.3489 109.078C14.3792 108.923 14.4254 108.798 14.4874 108.702C14.5872 108.52 14.7476 108.358 14.9682 108.216C15.1851 108.072 15.4556 107.998 15.7802 107.994C16.178 107.998 16.5026 108.11 16.753 108.332C17.0039 108.555 17.1621 108.832 17.2283 109.162H16.5665C16.5157 109.003 16.4233 108.868 16.2895 108.756C16.15 108.65 15.9803 108.595 15.7802 108.591C15.6333 108.595 15.5069 108.623 15.401 108.675C15.2938 108.729 15.207 108.797 15.1408 108.878C15.0596 108.962 15.006 109.072 14.9794 109.205C14.9491 109.345 14.9342 109.61 14.9342 109.997C14.9342 110.384 14.9491 110.647 14.9794 110.783C15.006 110.92 15.0596 111.031 15.1408 111.116C15.207 111.197 15.2938 111.263 15.401 111.313C15.5064 111.372 15.6328 111.402 15.7802 111.402C16.0236 111.402 16.2242 111.323 16.3827 111.164C16.5413 111.013 16.622 110.814 16.6262 110.567V110.362H15.7862L15.7858 109.797Z" fill="black" fill-opacity="0.4"/>
<path d="M23.4017 108.027H24.0267V111.403H26.0349V111.968H23.4017V108.027Z" fill="black" fill-opacity="0.4"/>
<path d="M30.6783 108.027H31.3033V111.967H30.6783V108.027Z" fill="black" fill-opacity="0.4"/>
<path d="M36.2273 108.027H36.8158L38.6827 110.827H38.6939V108.027H39.3189V111.967H38.7275L36.8634 109.167H36.8522V111.967H36.2268L36.2273 108.027Z" fill="black" fill-opacity="0.4"/>
<path d="M44.2452 108.027H46.8788V108.592H44.8706V109.716H46.585V110.246H44.8706V111.403H46.8788V111.968H44.2452V108.027Z" fill="black" fill-opacity="0.4"/>
<path d="M55.6 110.246H53.9681V111.967H53.3427V108.027H53.9681V109.716H55.6V108.027H56.2249V111.967H55.6V110.246Z" fill="black" fill-opacity="0.4"/>
<path d="M62.3808 108.027H65.0144V108.592H63.0062V109.716H64.7201V110.246H63.0062V111.403H65.0144V111.968H62.3808V108.027Z" fill="black" fill-opacity="0.4"/>
<path d="M69.6578 108.027H71.2673C71.6105 108.027 71.8904 108.113 72.1072 108.286C72.3693 108.482 72.506 108.762 72.5172 109.126C72.5097 109.662 72.2439 110.026 71.7197 110.218L72.6757 111.967H71.9319L71.0807 110.283H70.2832V111.967H69.6583L69.6578 108.027ZM70.2832 109.754H71.2281C71.4618 109.75 71.6371 109.685 71.7542 109.559C71.8694 109.442 71.9267 109.298 71.9267 109.127C71.923 108.921 71.854 108.773 71.7201 108.681C71.6143 108.6 71.4617 108.559 71.2617 108.559H70.2832V109.754Z" fill="black" fill-opacity="0.4"/>
<path d="M77.2457 108.027H79.8793V108.592H77.8711V109.716H79.585V110.246H77.8711V111.403H79.8793V111.968H77.2457V108.027Z" fill="black" fill-opacity="0.4"/>
</svg>
