<svg width="80" height="92" viewBox="0 0 80 92" fill="none" xmlns="http://www.w3.org/2000/svg">
<path d="M0.0230103 23.9081L7.81085 19.5275L26.1388 9.21336V54.5994L32.2152 58.0162L37.9776 54.7776L40.0078 53.6356L33.9313 50.2189V3.93293L26.9452 0L26.1388 0.45224L7.81085 10.7619L0.0230103 15.1424V23.9081Z" fill="black" fill-opacity="0.4"/>
<path d="M79.9878 15.1424L53.0657 0L46.0796 3.93293V52.5028L40.0078 55.9195L32.2152 60.3001L26.9452 63.2692L7.81085 52.5028V21.8114L0.0230103 26.192V54.5994L26.9452 69.7464L40.0078 62.4013L40.3172 62.2232L47.7956 58.0162L53.8674 54.5994V9.21336L72.1953 19.5275L79.9878 23.9081V15.1424Z" fill="black" fill-opacity="0.4"/>
<path d="M72.1953 50.2189L53.0656 60.9853L49.8258 59.1582L47.7956 60.3002L42.0333 63.5434L53.0656 69.7465L79.9878 54.5995V26.1921L72.1953 21.8115V50.2189Z" fill="black" fill-opacity="0.4"/>
<path d="M17.9645 89.8336H18.7461V91.9997H19.3036V89.8336H20.0851V89.29H17.9645V89.8336Z" fill="black" fill-opacity="0.4"/>
<path d="M23.1821 89.29L22.1768 91.9997H22.7676L23.0503 91.2419H23.9055L24.1878 91.9997H24.7785L23.7733 89.29H23.1821ZM23.2515 90.6988L23.4751 90.0876L23.7025 90.6988H23.2515Z" fill="black" fill-opacity="0.4"/>
<path d="M29.2027 90.5912H28.6452H28.37V91.1348H29.0377C28.8834 91.3312 28.6415 91.46 28.37 91.46C27.9077 91.46 27.5336 91.0955 27.5336 90.6451C27.5336 90.1984 27.9077 89.8339 28.37 89.8339C28.5866 89.8339 28.7883 89.9161 28.935 90.0517L29.3274 89.6658C29.078 89.4333 28.7404 89.2903 28.37 89.2903C27.603 89.2903 26.9794 89.8983 26.9794 90.6451C26.9794 91.3924 27.6034 91.9999 28.37 91.9999C29.1371 91.9999 29.7607 91.3924 29.7607 90.6451C29.7607 90.6273 29.7569 90.6095 29.7569 90.5917L29.2027 90.5912Z" fill="black" fill-opacity="0.4"/>
<path d="M33.8337 89.29H33.2795V91.9997H34.8465V91.4566H33.8337V89.29Z" fill="black" fill-opacity="0.4"/>
<path d="M37.8589 89.29H37.3047V91.9997H37.8589V89.29Z" fill="black" fill-opacity="0.4"/>
<path d="M42.0783 91.0989L40.9666 89.29H40.3168V91.9997H40.8714V90.1945L41.9869 91.9997H42.6325V89.29H42.0783V91.0989Z" fill="black" fill-opacity="0.4"/>
<path d="M45.0908 91.9997H46.7674V91.4566H45.6445V90.9166H46.7674V90.3735H45.6445V89.8336H46.7674V89.29H45.0908V91.9997Z" fill="black" fill-opacity="0.4"/>
<path d="M51.9596 90.3735H50.9464V89.29H50.3926V91.9997H50.9464V90.9166H51.9596V91.9997H52.5133V89.29H51.9596V90.3735Z" fill="black" fill-opacity="0.4"/>
<path d="M54.9715 91.9997H56.6482V91.4566H55.5252V90.9166H56.6482V90.3735H55.5252V89.8336H56.6482V89.29H54.9715V91.9997Z" fill="black" fill-opacity="0.4"/>
<path d="M60.7723 90.1052C60.7723 89.6548 60.4019 89.2903 59.9391 89.2903H59.1064V91.9999H59.6606V90.9169H59.7708L60.2734 91.9999H60.8825L60.3358 90.8201C60.596 90.6839 60.7723 90.4126 60.7723 90.1052ZM59.9396 90.3733H59.6606V89.8334H59.9396C60.0939 89.8334 60.2186 89.9549 60.2186 90.1052C60.2181 90.2514 60.0934 90.3733 59.9396 90.3733Z" fill="black" fill-opacity="0.4"/>
<path d="M63.2855 91.9997H64.9626V91.4566H63.8397V90.9166H64.9626V90.3735H63.8397V89.8336H64.9626V89.29H63.2855V91.9997Z" fill="black" fill-opacity="0.4"/>
<path d="M4.25682 79.501C4.91932 79.501 5.53682 79.7527 5.98646 80.1684L7.18816 78.9867C6.42438 78.2755 5.39147 77.8379 4.25682 77.8379C1.90968 77.8379 0 79.6979 0 81.9846C0 84.2712 1.90921 86.1313 4.25682 86.1313C5.39147 86.1313 6.42438 85.6937 7.18816 84.9824L5.98646 83.8117C5.53729 84.2164 4.91932 84.4681 4.25682 84.4681C2.84179 84.4681 1.69635 83.3631 1.69635 81.9841C1.69635 80.617 2.84179 79.501 4.25682 79.501Z" fill="black" fill-opacity="0.4"/>
<path d="M16.1617 77.8379C13.8146 77.8379 11.9054 79.6979 11.9054 81.9846C11.9054 84.2712 13.8146 86.1313 16.1617 86.1313C18.5094 86.1313 20.4186 84.2712 20.4186 81.9846C20.4186 79.6979 18.5094 77.8379 16.1617 77.8379ZM16.1617 84.4795C14.7467 84.4795 13.6013 83.3636 13.6013 81.9846C13.6013 80.617 14.7467 79.501 16.1617 79.501C17.566 79.501 18.7114 80.617 18.7114 81.9846C18.7114 83.3632 17.566 84.4795 16.1617 84.4795Z" fill="black" fill-opacity="0.4"/>
<path d="M34.334 86.1317V77.8379H32.5035L30.0209 83.8994L27.5279 77.8379H25.697V86.1317H27.3934V81.9846L29.1 86.1317H30.931L32.6381 81.9846V86.1317H34.334Z" fill="black" fill-opacity="0.4"/>
<path d="M41.9933 77.8379H39.6124V86.1317H41.3083V82.8164H42.0046C43.4088 82.8164 44.543 81.7004 44.543 80.3328C44.543 78.9538 43.4088 77.8379 41.9933 77.8379ZM41.9933 81.1532H41.3083V79.501H41.9933C42.465 79.501 42.8467 79.8729 42.8467 80.3324C42.8467 80.781 42.465 81.1532 41.9933 81.1532Z" fill="black" fill-opacity="0.4"/>
<path d="M51.7758 77.8379L48.6986 86.1317H50.5065L51.3711 83.8122H53.9879L54.8525 86.1317H56.6609L53.5837 77.8379H51.7758ZM51.9891 82.149L52.6746 80.278L53.3708 82.149H51.9891Z" fill="black" fill-opacity="0.4"/>
<path d="M67.1067 83.3741L63.7032 77.8379H61.7157V86.1317H63.4116V80.606L66.8258 86.1317H68.8021V77.8379H67.1067V83.3741Z" fill="black" fill-opacity="0.4"/>
<path d="M76.9335 80.1355L75.7543 77.8379H73.8564L76.0802 82.1814V86.1317H77.7761V82.1814L79.9999 77.8379H78.1015L76.9335 80.1355Z" fill="black" fill-opacity="0.4"/>
</svg>
