<svg width="80" height="90" viewBox="0 0 80 90" fill="none" xmlns="http://www.w3.org/2000/svg">
<path d="M10.2532 86.831H10.8564V89.7908H11.2522V86.831H11.8536V86.342H10.2532V86.831Z" fill="black" fill-opacity="0.4"/>
<path d="M15.2424 89.7903H15.6689L15.9609 88.9528H17.0839L17.3591 89.7903H17.7924L16.5404 86.1248L15.2424 89.7903ZM16.1258 88.4634L16.5336 87.291L16.9226 88.4634H16.1258Z" fill="black" fill-opacity="0.4"/>
<path d="M22.7273 86.7661C23.0366 86.7661 23.2985 86.9546 23.5141 87.3311L23.7961 86.9759C23.6319 86.7288 23.4648 86.5503 23.2949 86.4397C23.1171 86.3297 22.9256 86.2744 22.7209 86.2744C22.3393 86.2744 22.0153 86.4492 21.7491 86.7992C21.4829 87.1478 21.35 87.572 21.35 88.0722C21.35 88.5621 21.4807 88.982 21.7426 89.332C22.0041 89.6806 22.3185 89.8549 22.6853 89.8549C23.0611 89.8549 23.3711 89.6749 23.6147 89.3145C23.7221 89.1539 23.7986 88.9811 23.8439 88.7964C23.8902 88.597 23.9136 88.3675 23.9136 88.1086V87.9947H22.8297V88.4837H23.4839C23.4656 88.7265 23.379 88.9348 23.2238 89.1091C23.0686 89.2819 22.8936 89.3684 22.6989 89.3684C22.4701 89.3684 22.2578 89.2531 22.062 89.0221C21.8526 88.7737 21.7477 88.4572 21.7477 88.0727C21.7477 87.7005 21.8418 87.3906 22.0297 87.1435C22.2168 86.8922 22.4496 86.7661 22.7273 86.7661Z" fill="black" fill-opacity="0.4"/>
<path d="M29.5167 86.342V89.7908H30.6836V89.3014H29.9123V86.342H29.5167Z" fill="black" fill-opacity="0.4"/>
<path d="M34.9339 86.342H34.538V89.7908H34.9339V86.342Z" fill="black" fill-opacity="0.4"/>
<path d="M41.3517 89.9999V86.3414H40.9558V88.7382L39.0432 86.1067V89.7902H39.4387V87.3754L41.3517 89.9999Z" fill="black" fill-opacity="0.4"/>
<path d="M46.9068 86.831V86.342H45.4594V89.7908H46.9068V89.3014H45.8552V88.1488H46.8759V87.66H45.8552V86.831H46.9068Z" fill="black" fill-opacity="0.4"/>
<path d="M54.8042 89.7908V86.342H54.4083V87.6911H53.2766V86.342H52.8807V89.7908H53.2766V88.1805H54.4083V89.7908H54.8042Z" fill="black" fill-opacity="0.4"/>
<path d="M60.3588 86.831V86.342H58.9114V89.7908H60.3588V89.3014H59.3073V88.1488H60.3283V87.66H59.3073V86.831H60.3588Z" fill="black" fill-opacity="0.4"/>
<path d="M65.8273 87.3539C65.8273 87.0412 65.7426 86.7894 65.5726 86.599C65.4185 86.428 65.1681 86.342 64.8218 86.342H64.358V89.7908H64.7539V88.3794H64.8254L65.5744 89.7908H66.0587L65.2468 88.3212C65.421 88.2721 65.5615 88.1597 65.6682 87.984C65.7738 87.8078 65.8273 87.5981 65.8273 87.3539ZM64.8793 87.9259H64.7536V86.8314H64.8948C65.2594 86.8314 65.4419 87.0081 65.4419 87.3609C65.4415 87.7374 65.2544 87.9259 64.8793 87.9259Z" fill="black" fill-opacity="0.4"/>
<path d="M69.9314 89.7908H71.3788V89.3014H70.3273V88.1488H71.3483V87.66H70.3273V86.831H71.3788V86.342H69.9314V89.7908Z" fill="black" fill-opacity="0.4"/>
<path d="M7.20712 80.1514C7.07564 80.3787 6.92332 80.5813 6.75052 80.7594C6.57736 80.9294 6.37331 81.0664 6.138 81.1699C5.90269 81.2733 5.64477 81.3248 5.36455 81.3248C4.99094 81.3248 4.65251 81.2275 4.35003 81.0329C4.04718 80.8383 3.78529 80.5686 3.564 80.2237C3.3427 79.8746 3.17207 79.4703 3.0528 79.0097C2.93353 78.5492 2.87388 78.0433 2.87388 77.4916C2.87388 76.8666 2.93101 76.3007 3.04525 75.7939C3.1595 75.2871 3.31685 74.869 3.51767 74.5403C3.7289 74.1997 3.97857 73.9417 4.26741 73.7674C4.55624 73.5931 4.86843 73.5058 5.20396 73.5058C5.49819 73.5058 5.75936 73.5837 5.98784 73.7401C6.21597 73.8964 6.41319 74.1123 6.57916 74.3877C6.72789 74.6309 6.85758 74.9276 6.96823 75.2786C7.07888 75.629 7.16186 75.9545 7.21754 76.2544H7.64362L7.59692 73.1779H7.18127L6.96858 73.5913C6.70202 73.4009 6.42181 73.2526 6.12758 73.1472C5.83336 73.0419 5.50465 72.989 5.14145 72.989C4.65323 72.989 4.19484 73.0986 3.7659 73.3178C3.3366 73.5369 2.96477 73.8473 2.65007 74.2488C2.33178 74.6546 2.08246 75.1382 1.90248 75.6999C1.72249 76.2615 1.63269 76.8874 1.63269 77.5771C1.63269 78.2667 1.7243 78.886 1.90787 79.4358C2.09109 79.9856 2.33717 80.4509 2.64505 80.8321C2.95652 81.2133 3.31397 81.5057 3.71705 81.7084C4.12012 81.911 4.54187 82.0126 4.98123 82.0126C5.65949 82.0126 6.24434 81.8293 6.73579 81.4623C7.22724 81.0952 7.62171 80.4845 7.91952 79.629L7.53008 79.4103C7.44602 79.6772 7.33861 79.9242 7.20712 80.1514Z" fill="black" fill-opacity="0.4"/>
<path d="M19.5376 79.3667C19.7248 78.8074 19.8182 78.1853 19.8182 77.4999C19.8182 76.8188 19.7262 76.1976 19.5427 75.6365C19.3591 75.0753 19.1044 74.5959 18.7789 74.1986C18.4638 73.8094 18.0895 73.5075 17.6566 73.2926C17.2237 73.0777 16.7631 72.9705 16.2746 72.9705C15.8036 72.9705 15.3524 73.0758 14.9209 73.2864C14.4898 73.4971 14.1112 73.8013 13.7857 74.1986C13.4566 74.6001 13.1987 75.0753 13.0115 75.6242C12.8243 76.1735 12.731 76.799 12.731 77.4999C12.731 78.1405 12.82 78.7413 12.9986 79.3025C13.1771 79.8641 13.4221 80.3412 13.734 80.7342C14.0458 81.1353 14.4187 81.4484 14.8537 81.6738C15.2884 81.8986 15.7623 82.011 16.2749 82.011C16.7563 82.011 17.2101 81.9057 17.6361 81.695C18.0622 81.4843 18.4362 81.1844 18.7584 80.7952C19.0907 80.4026 19.3504 79.926 19.5376 79.3667ZM18.4282 79.0625C18.3399 79.5287 18.1987 79.9463 18.0047 80.3152C17.8175 80.6799 17.575 80.9638 17.2772 81.1664C16.979 81.3691 16.6449 81.4706 16.2746 81.4706C15.8797 81.4706 15.5403 81.3705 15.2561 81.1697C14.9719 80.969 14.7366 80.6903 14.5495 80.3336C14.3551 79.969 14.2132 79.5514 14.1234 79.0809C14.0332 78.6109 13.9883 78.0838 13.9883 77.4999C13.9883 76.9733 14.0307 76.4702 14.1155 75.9922C14.2003 75.5141 14.3292 75.0966 14.5024 74.7395C14.686 74.3668 14.9231 74.0687 15.2141 73.8457C15.5051 73.6228 15.8586 73.5113 16.2742 73.5113C16.6446 73.5113 16.974 73.6077 17.2614 73.8004C17.5488 73.9931 17.7881 74.2614 17.9785 74.6062C18.1689 74.9548 18.3137 75.3762 18.4125 75.8708C18.5113 76.3653 18.5605 76.9085 18.5605 77.5004C18.5608 78.0757 18.5166 78.5968 18.4282 79.0625Z" fill="black" fill-opacity="0.4"/>
<path d="M25.8771 80.5586C25.8322 80.7939 25.7489 80.9682 25.6278 81.0815C25.5344 81.1708 25.4018 81.2379 25.2301 81.2823C25.0587 81.3267 24.8949 81.3574 24.739 81.3735V81.8052H27.7161V81.3735C27.6432 81.3697 27.4876 81.3291 27.2484 81.2521C27.0095 81.1751 26.8518 81.0938 26.7756 81.0088C26.6646 80.8954 26.5823 80.7088 26.5288 80.4495C26.4753 80.1902 26.4483 79.8109 26.4483 79.3125V74.1624H26.5158L28.911 81.6654H29.1707L31.6854 74.3145H31.7634V80.5893C31.7634 80.7396 31.7382 80.8643 31.6879 80.9634C31.6377 81.0626 31.559 81.151 31.4516 81.228C31.3822 81.2728 31.255 81.3069 31.0697 81.3314C30.8843 81.3555 30.7327 81.3702 30.6152 81.3739V81.8057H33.8729V81.3739C33.7795 81.3702 33.653 81.3508 33.4935 81.3163C33.334 81.2818 33.2234 81.2445 33.1612 81.2039C33.0434 81.1312 32.9636 81.0456 32.9223 80.9483C32.8806 80.851 32.8598 80.7315 32.8598 80.5898V74.3688C32.8598 74.2351 32.8806 74.1114 32.9223 73.998C32.964 73.8846 33.0434 73.8034 33.1612 73.7547C33.2306 73.7264 33.3405 73.6961 33.491 73.6636C33.6415 73.631 33.7655 73.613 33.8625 73.6087V73.177H31.4584C31.4548 73.2502 31.4296 73.3952 31.3829 73.6121C31.3362 73.8289 31.2798 74.0367 31.2145 74.2356L29.4114 79.6531L27.2994 73.177H24.7857V73.6087C24.938 73.6168 25.0922 73.6475 25.2481 73.6999C25.404 73.7523 25.5355 73.8336 25.6429 73.9432C25.7399 74.0447 25.8142 74.1765 25.8663 74.3386C25.9184 74.5006 25.9443 74.7094 25.9443 74.9649V79.3791C25.9446 79.9304 25.922 80.3234 25.8771 80.5586Z" fill="black" fill-opacity="0.4"/>
<path d="M44.5386 76.4996C44.6895 76.1529 44.7646 75.7547 44.7646 75.305C44.7646 74.6607 44.5508 74.1449 44.123 73.7575C43.6951 73.3707 43.1382 73.177 42.4524 73.177H39.0856V73.6087C39.179 73.6168 39.2907 73.6319 39.4207 73.6546C39.5504 73.6768 39.6812 73.7145 39.8131 73.767C39.9409 73.8237 40.0225 73.9087 40.0573 74.0225C40.0918 74.1359 40.1094 74.2639 40.1094 74.4056V80.6318C40.1094 80.7901 40.0861 80.9195 40.0394 81.0211C39.9927 81.1226 39.9172 81.1996 39.8134 81.252C39.7513 81.2846 39.641 81.3106 39.4833 81.3309C39.3255 81.3512 39.2052 81.3654 39.1222 81.3735V81.8052H42.2865V81.3735C42.155 81.3697 42.0102 81.355 41.8525 81.3309C41.6948 81.3064 41.5849 81.2804 41.5227 81.252C41.398 81.1954 41.3158 81.1132 41.2759 81.0059C41.236 80.8987 41.2163 80.774 41.2163 80.6318V78.0173H42.0425C42.3957 78.0173 42.7302 77.9644 43.0452 77.8591C43.3603 77.7537 43.6498 77.5875 43.9128 77.3607C44.1793 77.133 44.3881 76.8463 44.5386 76.4996ZM43.4188 76.1713C43.3807 76.3801 43.3028 76.5818 43.1849 76.7764C43.0671 76.9791 42.8914 77.1482 42.6576 77.2842C42.4237 77.4202 42.1198 77.4878 41.7458 77.4878H41.2159V73.6753H41.9484C42.2426 73.6753 42.4887 73.7283 42.6863 73.8336C42.8835 73.9389 43.043 74.0868 43.1645 74.2776C43.2787 74.4561 43.3592 74.6645 43.4059 74.904C43.4526 75.1435 43.4759 75.3782 43.4759 75.6092C43.4759 75.775 43.4569 75.9625 43.4188 76.1713Z" fill="black" fill-opacity="0.4"/>
<path d="M56.7419 81.3728C56.6553 81.369 56.5479 81.3473 56.42 81.309C56.2918 81.2703 56.188 81.223 56.1082 81.1659C55.9904 81.0728 55.8988 80.9774 55.8327 80.8801C55.7669 80.7828 55.708 80.6553 55.6559 80.497L53.1983 73.0549H52.7827C52.4327 74.1088 52.0343 75.3109 51.5878 76.6605C51.1409 78.0105 50.7321 79.2263 50.3617 80.3085C50.2888 80.5192 50.2144 80.6845 50.1382 80.804C50.0621 80.9236 49.9547 81.0383 49.816 81.1474C49.7294 81.2122 49.6184 81.2641 49.4837 81.3024C49.3486 81.3406 49.2358 81.3643 49.146 81.3723V81.804H51.9226V81.3723C51.6489 81.3562 51.4028 81.3034 51.1847 81.2141C50.9667 81.1248 50.8574 80.9991 50.8574 80.8371C50.8574 80.7681 50.8661 80.6789 50.8833 80.5698C50.9006 80.4602 50.9318 80.3185 50.9771 80.1442C51.0256 79.9656 51.0802 79.7715 51.1409 79.5603C51.2016 79.3496 51.2806 79.1021 51.3776 78.8187H53.9656L54.5764 80.7521C54.5904 80.7927 54.6005 80.8395 54.6076 80.8919C54.6145 80.9448 54.6181 80.9892 54.6181 81.0256C54.6181 81.1149 54.5286 81.19 54.3504 81.2504C54.1719 81.3114 53.9477 81.3515 53.6775 81.3718V81.8036H56.7423L56.7419 81.3728ZM51.5583 78.2779L52.6591 74.9297L53.776 78.2779H51.5583Z" fill="black" fill-opacity="0.4"/>
<path d="M67.6334 81.8902V75.5728C67.6334 75.1312 67.6549 74.766 67.6984 74.4784C67.7419 74.1907 67.8256 73.9961 67.9506 73.8945C68.0372 73.8298 68.1809 73.767 68.3817 73.706C68.5825 73.6451 68.7316 73.613 68.8286 73.6087V73.177H65.8307V73.6087C65.9449 73.6168 66.112 73.6574 66.3322 73.7301C66.552 73.8034 66.7105 73.878 66.8075 73.955C66.9113 74.0443 66.991 74.2233 67.0464 74.493C67.1017 74.7627 67.1297 75.1487 67.1297 75.6513V79.7547L62.9858 73.177H60.8792V73.6087C61.0106 73.6168 61.1831 73.6687 61.3961 73.7637C61.6092 73.8591 61.778 73.9734 61.9026 74.1071C61.9961 74.2086 62.0708 74.3522 62.1261 74.5388C62.1814 74.7254 62.2091 74.912 62.2091 75.0981V79.3484C62.2091 79.912 62.1865 80.3102 62.1416 80.543C62.0967 80.7764 62.0133 80.9493 61.8922 81.0631C61.8369 81.1198 61.6982 81.1836 61.4766 81.2549C61.2549 81.3258 61.0972 81.3654 61.0038 81.3735V81.8052H64.0276V81.3735C63.9479 81.3697 63.7833 81.3291 63.534 81.2521C63.2847 81.1751 63.1201 81.0919 63.0404 81.0027C62.9294 80.8893 62.8471 80.6984 62.7936 80.4311C62.7401 80.1637 62.7131 79.7807 62.7131 79.2818V74.8312L67.1814 81.8902H67.6334Z" fill="black" fill-opacity="0.4"/>
<path d="M77.4369 73.177V73.6087C77.5371 73.621 77.6463 73.6319 77.7641 73.6423C77.882 73.6522 77.9912 73.6735 78.0914 73.706C78.1884 73.7386 78.2663 73.7831 78.3253 73.8397C78.3842 73.8964 78.4136 73.971 78.4136 74.0641C78.4136 74.1775 78.2707 74.5209 77.9851 75.0938C77.6995 75.6673 77.2853 76.4665 76.7417 77.4916C76.4687 76.9162 76.2477 76.4491 76.0782 76.0905C75.909 75.732 75.743 75.3721 75.5806 75.0116C75.5253 74.886 75.4664 74.7551 75.4042 74.6196C75.3421 74.484 75.2885 74.3636 75.2436 74.2578C75.2056 74.1647 75.1761 74.0877 75.1553 74.0273C75.1344 73.9668 75.124 73.9243 75.124 73.8997C75.124 73.8109 75.197 73.7424 75.3421 73.6938C75.4876 73.6456 75.7369 73.6172 76.0904 73.6087V73.177H72.9441V73.6087C73.0375 73.6168 73.1424 73.6371 73.2584 73.6697C73.3745 73.7023 73.474 73.7486 73.5573 73.8095C73.6716 73.8988 73.7729 74.0022 73.8613 74.1194C73.9496 74.237 74.051 74.4113 74.1652 74.6423C74.3524 75.0315 74.5722 75.4996 74.8251 76.0466C75.078 76.5936 75.3083 77.1028 75.5163 77.5728C75.6097 77.7835 75.6902 77.9753 75.7577 78.1472C75.8253 78.3196 75.859 78.4382 75.859 78.5029V80.6007C75.859 80.7547 75.8357 80.8845 75.789 80.9899C75.7423 81.0952 75.6564 81.1784 75.5318 81.2393C75.4556 81.2757 75.3205 81.3054 75.1265 81.3276C74.9325 81.3498 74.787 81.3654 74.6901 81.3735V81.8052H78.1399V81.3735C78.0257 81.3697 77.8748 81.3442 77.688 81.2974C77.5008 81.2506 77.3711 81.2114 77.2982 81.1788C77.1771 81.1141 77.0913 81.0277 77.041 80.9205C76.9907 80.8132 76.9655 80.6862 76.9655 80.5402V78.8926C76.9655 78.5926 76.9863 78.3636 77.0277 78.2058C77.069 78.048 77.1541 77.8392 77.2824 77.5794C77.6255 76.8742 77.9111 76.2927 78.1399 75.8345C78.3684 75.3763 78.6181 74.9247 78.8879 74.4784C79.0262 74.2554 79.1199 74.1175 79.1684 74.065C79.2169 74.0126 79.3085 73.9375 79.444 73.8402C79.4993 73.7915 79.5913 73.7419 79.7195 73.6914C79.8478 73.6409 79.9412 73.6135 80.0001 73.6092V73.1775L77.4369 73.177Z" fill="black" fill-opacity="0.4"/>
<path d="M13.0844 43.3333L13.0613 43.3699L26.1225 63.3333L39.1837 43.3699L39.1606 43.3333H13.0844Z" fill="black" fill-opacity="0.4"/>
<path d="M39.2067 43.3333L39.1836 43.3699L52.2448 63.3333L65.306 43.3699L65.2829 43.3333H39.2067Z" fill="black" fill-opacity="0.4"/>
<path d="M40.7938 46.0596L40.8158 46.0924L40.7975 46.0596H40.7938Z" fill="black" fill-opacity="0.4"/>
<path d="M13.0709 43.3334L13.094 43.2937L26.1224 21.7007L26.0993 21.6667H0L13.0477 43.2937L13.0709 43.3334Z" fill="black" fill-opacity="0.4"/>
<path d="M65.2714 43.2937L65.2945 43.3334L65.3177 43.2937L78.3673 21.6667H52.268L52.2449 21.7007L65.2714 43.2937Z" fill="black" fill-opacity="0.4"/>
<path d="M39.1837 0.039168L39.1606 0H13.0613L26.1109 21.6667H26.1572L39.1837 0.039168Z" fill="black" fill-opacity="0.4"/>
<path d="M52.2217 21.6667H52.2679L65.306 0H39.2298H39.1836L39.2067 0.039168L52.2217 21.6667Z" fill="black" fill-opacity="0.4"/>
<path d="M26.1494 21.7007L39.1606 43.2937H39.1644L39.1837 43.3334L39.2068 43.2937L52.2218 21.7007L52.2449 21.6667H52.1987H26.1686H26.1224L26.1455 21.7007H26.1494Z" fill="black" fill-opacity="0.4"/>
</svg>
