<svg width="30" height="30" viewBox="0 0 30 30" fill="none" xmlns="http://www.w3.org/2000/svg">
<path d="M26.1622 15.5273C23.6034 17.9538 20.4269 20.292 17.9122 21.7038C15.7063 22.9832 12.0446 24.6597 8.64749 25.5862C16.324 30.7921 26.824 24.8803 26.1622 15.5273ZM20.3387 23.5568C19.8975 23.5568 19.5445 23.2038 19.5445 22.7626C19.5445 22.3215 19.8975 21.9685 20.3387 21.9685C20.7798 21.9685 21.1328 22.3215 21.1328 22.7626C21.1328 23.2038 20.7798 23.5568 20.3387 23.5568Z" fill="white"/>
<path d="M28.8101 8.64849C28.0601 7.32496 25.766 7.01613 22.7219 7.58966C23.2954 8.11908 23.6042 8.4279 23.9131 8.78084C24.9719 8.64849 26.8248 8.60437 27.1778 9.22202C29.5601 13.4573 4.76601 27.6632 2.38366 23.2955C2.16307 22.9426 2.47189 21.7514 3.92778 19.9867C3.83954 19.6779 3.70719 19.325 3.53072 18.4426C1.32484 20.825 0.354248 22.9867 1.14837 24.3544C3.22189 28.0603 13.6337 23.6044 17.6925 21.3103C21.5748 19.1044 30.9278 12.3544 28.8101 8.64849Z" fill="white"/>
<path d="M14.9528 5.07324C5.29106 5.07324 0.438118 16.3232 6.30577 23.4262C11.8646 22.1468 21.7911 16.4115 25.4528 12.3527C23.9087 8.2056 19.8499 5.07324 14.9528 5.07324ZM10.0558 18.7938C9.52635 18.7938 9.08518 18.3527 9.08518 17.8232C9.08518 17.2938 9.52635 16.8527 10.0558 16.8527C10.5852 16.8527 11.0264 17.2938 11.0264 17.8232C11.0705 18.3527 10.6293 18.7938 10.0558 18.7938ZM15.6146 12.485C14.9528 12.485 14.3793 11.9115 14.3793 11.2497C14.3793 10.5879 14.9528 10.0144 15.6146 10.0144C16.2764 10.0144 16.8499 10.5438 16.8499 11.2497C16.8499 11.9556 16.3205 12.485 15.6146 12.485Z" fill="white"/>
</svg>
