<svg width="80" height="102" viewBox="0 0 80 102" fill="none" xmlns="http://www.w3.org/2000/svg">
<path d="M1.13641 101.709H1.88187V97.6013H3.01492V96.9224H0V97.6013H1.13641V101.709Z" fill="black" fill-opacity="0.4"/>
<path d="M6.92635 101.709L7.47696 100.547H9.59264L10.111 101.709H10.9268L8.56811 96.6221L6.12265 101.709H6.92635ZM8.55554 98.2401L9.28842 99.8676H7.78746L8.55554 98.2401Z" fill="black" fill-opacity="0.4"/>
<path d="M16.9477 97.511C17.5302 97.511 18.0242 97.7724 18.4294 98.2955L18.9607 97.8028C18.6515 97.4599 18.3368 97.2119 18.0166 97.0589C17.6814 96.9059 17.3211 96.8296 16.9347 96.8296C16.2157 96.8296 15.6055 97.0723 15.104 97.5581C14.6028 98.0418 14.3518 98.6307 14.3518 99.3251C14.3518 100.005 14.5982 100.588 15.0914 101.073C15.5842 101.557 16.1763 101.799 16.8677 101.799C17.5758 101.799 18.1595 101.549 18.6184 101.048C18.8212 100.825 18.9653 100.585 19.0504 100.329C19.138 100.052 19.1816 99.7342 19.1816 99.3742V99.2163H17.1396V99.8953H18.372C18.3376 100.232 18.1746 100.521 17.8821 100.763C17.5897 101.003 17.2603 101.123 16.8932 101.123C16.462 101.123 16.0623 100.963 15.6931 100.642C15.2984 100.297 15.101 99.858 15.101 99.3251C15.101 98.8085 15.2779 98.3787 15.6324 98.0357C15.986 97.6859 16.4247 97.511 16.9477 97.511Z" fill="black" fill-opacity="0.4"/>
<path d="M25.6649 96.9224V101.709H27.8635V101.03H26.4108V96.9224H25.6649Z" fill="black" fill-opacity="0.4"/>
<path d="M32.5944 96.9224H31.8485V101.708H32.5944V96.9224Z" fill="black" fill-opacity="0.4"/>
<path d="M37.0589 101.709H37.8048V98.3576L41.4089 102V96.9222H40.663V100.248L37.0589 96.5967V101.709Z" fill="black" fill-opacity="0.4"/>
<path d="M45.8704 101.709H48.5974V101.03H46.6162V99.43H48.54V98.7515H46.6162V97.6013H48.5974V96.9224H45.8704V101.709Z" fill="black" fill-opacity="0.4"/>
<path d="M57.8579 98.7949H55.7267V96.9224H54.9809V101.709H55.7267V99.4739H57.8579V101.709H58.6038V96.9224H57.8579V98.7949Z" fill="black" fill-opacity="0.4"/>
<path d="M65.7922 97.6013V96.9224H63.0652V101.709H65.7922V101.03H63.8111V99.43H65.7348V98.7515H63.8111V97.6013H65.7922Z" fill="black" fill-opacity="0.4"/>
<path d="M70.7951 99.7494H70.9296L72.3409 101.708H73.2531L71.7233 99.6687C72.0518 99.6005 72.3162 99.4442 72.5169 99.2007C72.7176 98.9568 72.8178 98.6654 72.8178 98.3266C72.8178 97.8927 72.6577 97.5433 72.338 97.2787C72.0476 97.0413 71.5762 96.9224 70.9233 96.9224H70.0497V101.708H70.7955L70.7951 99.7494ZM70.7951 97.6013H71.0608C71.748 97.6013 72.0916 97.8465 72.0916 98.3359C72.0916 98.8586 71.7383 99.12 71.0323 99.12H70.7955L70.7951 97.6013Z" fill="black" fill-opacity="0.4"/>
<path d="M80 97.6013V96.9224H77.2729V101.709H80V101.03H78.0188V99.43H79.9426V98.7515H78.0188V97.6013H80Z" fill="black" fill-opacity="0.4"/>
<path d="M49.7117 0L16.0761 32.5807V46.4278L49.7117 13.8512V0Z" fill="black" fill-opacity="0.4"/>
<path d="M49.7118 41.4563V30.0442L30.2856 48.8588V48.8629L16.0763 62.6208V74.037L30.2856 60.275L49.7118 41.4563Z" fill="black" fill-opacity="0.4"/>
<path d="M30.2852 34.6097V46.4236V46.4277L49.7115 27.6171L63.925 13.8511V2.02905L49.7115 15.7951L30.2852 34.6097Z" fill="black" fill-opacity="0.4"/>
<path d="M63.925 29.6382L49.7115 43.4046L30.2852 62.2148V74.0368L63.925 41.4562V29.6382Z" fill="black" fill-opacity="0.4"/>
<path d="M1.35061 90.8164C1.76964 91.2141 2.26829 91.5213 2.84823 91.7385C3.42775 91.9556 4.06425 92.0639 4.75817 92.0639C5.41814 92.0639 6.03998 91.941 6.62369 91.695C7.2074 91.4491 7.70227 91.0558 8.10831 90.5153L6.78837 89.6058C6.49211 89.9747 6.17281 90.2429 5.83005 90.411C5.48728 90.579 5.13404 90.663 4.77032 90.663C4.30478 90.663 3.88407 90.581 3.50736 90.417C3.13107 90.2531 2.80716 90.0278 2.53689 89.7409C2.26577 89.4544 2.05668 89.1143 1.90876 88.7206C1.76042 88.3274 1.68667 87.8972 1.68667 87.4301C1.68667 86.9958 1.76084 86.5904 1.90876 86.2134C2.05668 85.8368 2.26619 85.5068 2.53689 85.2239C2.80758 84.9411 3.13107 84.7199 3.50736 84.5604C3.88407 84.4005 4.30478 84.3205 4.77032 84.3205C5.08333 84.3205 5.39425 84.3782 5.70308 84.4926C6.0119 84.6075 6.33121 84.8368 6.6614 85.1809L7.90509 84.2958C7.45672 83.7962 6.97232 83.4415 6.45231 83.2325C5.93187 83.0235 5.36702 82.9192 4.75817 82.9192C4.06425 82.9192 3.42775 83.028 2.84823 83.2451C2.26871 83.4622 1.76964 83.7719 1.35061 84.1732C0.932001 84.5746 0.6039 85.0604 0.367148 85.6298C0.130396 86.1996 0.0118103 86.8323 0.0118103 87.5287C0.0118103 88.2089 0.130396 88.8274 0.367148 89.3846C0.6039 89.9418 0.931581 90.4191 1.35061 90.8164Z" fill="black" fill-opacity="0.4"/>
<path d="M12.5819 90.8164C13.0009 91.2141 13.4995 91.5213 14.0795 91.7384C14.659 91.9555 15.2955 92.0639 15.9894 92.0639C16.6913 92.0558 17.3345 91.9389 17.9186 91.7137C18.5024 91.4884 19.0056 91.1751 19.4288 90.7733C19.8516 90.372 20.1818 89.8927 20.4186 89.335C20.6553 88.7778 20.7739 88.1593 20.7739 87.4791C20.7739 86.7827 20.6553 86.1517 20.4186 85.5863C20.1814 85.021 19.8516 84.5376 19.4288 84.1359C19.0056 83.7345 18.5024 83.4293 17.9186 83.2203C17.3345 83.0113 16.6917 82.911 15.9894 82.9192C15.2955 82.9192 14.659 83.0279 14.0795 83.245C13.5 83.4622 13.0009 83.7718 12.5819 84.1732C12.1633 84.5746 11.8352 85.0604 11.5984 85.6298C11.3617 86.1996 11.2431 86.8322 11.2431 87.5287C11.2431 88.2088 11.3617 88.8273 11.5984 89.3846C11.8352 89.9418 12.1633 90.419 12.5819 90.8164ZM13.1404 86.2133C13.2884 85.8367 13.4979 85.5068 13.7686 85.2239C14.0393 84.941 14.3628 84.7199 14.7395 84.5604C15.1158 84.4005 15.5365 84.3205 16.002 84.3205C16.4671 84.3205 16.8903 84.4005 17.2712 84.5604C17.6517 84.7203 17.9777 84.9415 18.2484 85.2239C18.5191 85.5068 18.7286 85.8367 18.877 86.2133C19.0249 86.5904 19.0991 86.9958 19.0991 87.43C19.0991 87.8972 19.0249 88.3274 18.877 88.7206C18.7286 89.1139 18.5191 89.454 18.2484 89.7409C17.9777 90.0278 17.6521 90.2531 17.2712 90.417C16.8903 90.581 16.4671 90.6629 16.002 90.6629C15.5365 90.6629 15.1158 90.581 14.7395 90.417C14.3628 90.2531 14.0393 90.0278 13.7686 89.7409C13.4979 89.4544 13.2884 89.1143 13.1404 88.7206C12.9921 88.3274 12.9184 87.8972 12.9184 87.43C12.9179 86.9962 12.9921 86.5904 13.1404 86.2133Z" fill="black" fill-opacity="0.4"/>
<path d="M27.3093 83.1409H24.8727V91.8428H26.3954V84.6157H26.4205L29.1493 91.8428H30.2664L32.9947 84.6157H33.0203V91.8428H34.543V83.1409H32.1315L29.7078 89.2374L27.3093 83.1409Z" fill="black" fill-opacity="0.4"/>
<path d="M40.7234 88.2418H41.8656C42.3392 88.2418 42.7942 88.209 43.2296 88.1436C43.6654 88.0783 44.0484 87.9533 44.3782 87.7686C44.7079 87.5844 44.9702 87.3242 45.1651 86.9882C45.3595 86.6522 45.4567 86.2098 45.4567 85.6607C45.4567 85.1774 45.3658 84.774 45.1839 84.4501C45.0017 84.1262 44.7586 83.8681 44.454 83.6758C44.1494 83.4834 43.7961 83.3458 43.3943 83.2638C42.9924 83.1823 42.5755 83.1409 42.1443 83.1409H39.1239V91.8433H40.7229V88.2418H40.7234ZM40.7234 84.4684H41.8656C42.0768 84.4684 42.2972 84.4805 42.5256 84.5053C42.754 84.5301 42.9614 84.5853 43.1475 84.6713C43.3335 84.7573 43.486 84.8803 43.6042 85.0398C43.7224 85.1993 43.7819 85.4148 43.7819 85.6851C43.7819 85.9801 43.7161 86.2094 43.5853 86.3734C43.4542 86.5373 43.2849 86.6603 43.0775 86.7423C42.8701 86.8243 42.6438 86.8734 42.3987 86.8896C42.1531 86.9062 41.9164 86.9143 41.688 86.9143H40.7234V84.4684Z" fill="black" fill-opacity="0.4"/>
<path d="M50.0765 89.8517H53.9727L54.8103 91.8428H56.6377L52.7671 83.1404H51.3839L47.4748 91.8428H49.2644L50.0765 89.8517ZM52.0309 84.9845L53.4141 88.5242H50.6221L52.0309 84.9845Z" fill="black" fill-opacity="0.4"/>
<path d="M60.1782 83.1409V91.8428H61.7772V85.1688H61.8028L66.2445 91.8428H68.2751V83.1409H66.6761V89.6059H66.6506L62.2977 83.1409H60.1782Z" fill="black" fill-opacity="0.4"/>
<path d="M75.0139 91.8428H76.6125V88.1189L79.9886 83.1409H78.085L75.8511 86.6071L73.6428 83.1409H71.6378L75.0139 88.1189V91.8428Z" fill="black" fill-opacity="0.4"/>
</svg>
