<svg width="80" height="88" viewBox="0 0 80 88" fill="none" xmlns="http://www.w3.org/2000/svg">
<path d="M11.0592 57.5379L18.6306 50.0082V23.9344H24.1786V44.491L31.75 36.9617V16.4089H11.063L11.0592 57.5379Z" fill="black" fill-opacity="0.4"/>
<path d="M52.4371 36.9811H34.439L26.8869 44.4913V44.5105H44.8695V50.0277H21.3195L13.7675 57.5381V57.557L52.4371 57.5532V36.9811Z" fill="black" fill-opacity="0.4"/>
<path d="M68.9377 2.67407L61.3702 10.1996V21.9303H49.5739L42.0064 29.4558H68.9377V2.67407Z" fill="black" fill-opacity="0.4"/>
<path d="M39.3176 29.4364L46.8852 21.9109V7.5255H61.351L68.9185 0H39.3176V29.4364Z" fill="black" fill-opacity="0.4"/>
<path d="M0.000396728 84.9141H0.972651V87.9705H1.51391V84.9141H2.48616V84.4366H0.000396728V84.9141Z" fill="black" fill-opacity="0.4"/>
<path d="M7.46084 87.1803H8.80838L9.08384 87.9706H9.6518L8.35997 84.4371H7.90924L6.61742 87.9706H7.1877L7.46084 87.1803ZM8.13093 85.1616H8.1406L8.65478 86.7055H7.61676L8.13093 85.1616Z" fill="black" fill-opacity="0.4"/>
<path d="M15.0307 85.2004C15.0876 85.1277 15.1623 85.0673 15.2547 85.0184C15.3456 84.9715 15.4547 84.9465 15.5813 84.9434C15.7534 84.9465 15.8997 84.9957 16.02 85.0911C16.1353 85.1912 16.215 85.3124 16.2587 85.4547H16.829C16.7721 85.1592 16.6359 84.9111 16.4197 84.7106C16.2034 84.5121 15.924 84.4109 15.5813 84.4078C15.3015 84.4113 15.0686 84.4775 14.8818 84.6068C14.6918 84.7345 14.5537 84.8799 14.4674 85.043C14.414 85.1288 14.3742 85.2408 14.3479 85.3801C14.3235 85.519 14.3111 85.7937 14.3111 86.2042C14.3111 86.6082 14.3235 86.8813 14.3479 87.0233C14.361 87.0991 14.3773 87.1622 14.3966 87.2122C14.4179 87.2607 14.4415 87.3115 14.4674 87.3649C14.5537 87.5281 14.6918 87.672 14.8818 87.7962C15.0686 87.9255 15.3015 87.9932 15.5813 87.9998C15.9438 87.9932 16.244 87.8713 16.4831 87.6339C16.7203 87.3946 16.8421 87.0983 16.8487 86.7444V86.0245H15.5863V86.5312H16.3102V86.7155C16.3071 86.9367 16.237 87.1152 16.1005 87.2511C15.9639 87.3934 15.791 87.4642 15.5813 87.4642C15.4544 87.4642 15.3456 87.4377 15.2547 87.3842C15.1623 87.3388 15.0872 87.2799 15.0307 87.2072C14.9607 87.1314 14.9147 87.0318 14.8918 86.909C14.8659 86.7863 14.8527 86.5512 14.8527 86.2038C14.8527 85.8564 14.8659 85.6198 14.8918 85.4936C14.9147 85.3739 14.9607 85.2762 15.0307 85.2004Z" fill="black" fill-opacity="0.4"/>
<path d="M24.3868 84.4366V87.9705H26.6559V87.4638H24.9253V84.4366H24.3868Z" fill="black" fill-opacity="0.4"/>
<path d="M32.193 84.4366H31.6544V87.9701H32.193V84.4366Z" fill="black" fill-opacity="0.4"/>
<path d="M39.5491 86.9474L37.9404 84.4366H37.4336V87.9705H37.9725V85.4597H37.9818L39.5878 87.9705H40.0973V84.4366H39.5588V86.9474H39.5491Z" fill="black" fill-opacity="0.4"/>
<path d="M47.6088 84.9433V84.4366H45.3401V87.9705H47.6088V87.4638H45.8786V86.4265H47.3554V85.9514H45.8786V84.9433H47.6088Z" fill="black" fill-opacity="0.4"/>
<path d="M57.6425 87.9705V84.4366H57.1039V85.9514H55.6976V84.4366H55.159V87.9705H55.6976V86.4265H57.1039V87.9705H57.6425Z" fill="black" fill-opacity="0.4"/>
<path d="M65.154 84.9433V84.4366H62.8852V87.9705H65.154V87.4638H63.4238V86.4265H64.9009V85.9514H63.4238V84.9433H65.154Z" fill="black" fill-opacity="0.4"/>
<path d="M72.6174 85.4231C72.6077 85.0969 72.4897 84.8456 72.2638 84.6694C72.0769 84.5143 71.8359 84.4366 71.5399 84.4366H70.1529V87.9701H70.6914V86.4604H71.3785L72.1121 87.9701H72.7532L71.9295 86.4019C72.3817 86.2295 72.6108 85.9029 72.6174 85.4231ZM71.9593 85.8109C71.8583 85.924 71.7074 85.9821 71.5058 85.9852H70.6918V84.9141H71.5352C71.7074 84.9141 71.8389 84.9506 71.9299 85.023C72.0452 85.1053 72.1043 85.2388 72.1078 85.4227C72.1078 85.5766 72.0583 85.7059 71.9593 85.8109Z" fill="black" fill-opacity="0.4"/>
<path d="M77.6895 87.9705H79.9582V87.4638H78.228V86.4265H79.7048V85.9514H78.228V84.9433H79.9582V84.4366H77.6895V87.9705Z" fill="black" fill-opacity="0.4"/>
<path d="M5.12551 77.8457C4.84695 78.3786 4.40164 78.6452 3.7892 78.6452C3.17675 78.6452 2.69469 78.4548 2.34339 78.0743C1.99209 77.6938 1.81645 77.1851 1.81645 76.5484C1.81645 75.9117 1.99209 75.403 2.34339 75.0225C2.69469 74.642 3.17675 74.4516 3.7892 74.4516C4.40126 74.4516 4.84695 74.7182 5.12551 75.2507H7.25495C7.00464 74.4897 6.56281 73.8944 5.92947 73.4651C5.29613 73.0361 4.57226 72.8214 3.75825 72.8214C2.70746 72.8214 1.81838 73.1727 1.09103 73.8752C0.363676 74.5778 0 75.4684 0 76.548C0 77.6276 0.363676 78.5186 1.09103 79.2208C1.81799 79.9233 2.70707 80.2746 3.75825 80.2746C4.57226 80.2746 5.29613 80.0603 5.92947 79.6309C6.56281 79.2019 7.00464 78.6067 7.25495 77.8453H5.12551V77.8457Z" fill="black" fill-opacity="0.4"/>
<path d="M19.6557 76.548C19.6557 75.4684 19.2955 74.5774 18.5755 73.8752C17.8552 73.1731 16.968 72.8214 15.9137 72.8214C14.8591 72.8214 13.9685 73.1727 13.2415 73.8752C12.5141 74.5778 12.1509 75.4684 12.1509 76.548C12.1509 77.6276 12.5141 78.5202 13.2415 79.2262C13.9685 79.9322 14.8575 80.285 15.9087 80.285C16.9595 80.285 17.8466 79.9322 18.5705 79.2262C19.2936 78.5206 19.6557 77.6276 19.6557 76.548ZM17.3124 78.0739C16.9607 78.4548 16.491 78.6448 15.9029 78.6448C15.3148 78.6448 14.8452 78.4544 14.4935 78.0739C14.1422 77.6934 13.9665 77.1847 13.9665 76.548C13.9665 75.9113 14.1422 75.4026 14.4935 75.0221C14.8448 74.6416 15.3145 74.4512 15.9029 74.4512C16.491 74.4512 16.9607 74.6416 17.3124 75.0221C17.6636 75.403 17.8393 75.9113 17.8393 76.548C17.8393 77.1847 17.6633 77.6938 17.3124 78.0739Z" fill="black" fill-opacity="0.4"/>
<path d="M33.278 72.9254H31.2321L29.134 77.9497L27.0255 72.9254H24.9792V80.2124H26.7643V76.1018L28.4659 80.2124H29.7913L31.4929 76.1018V80.2124H33.278V72.9254Z" fill="black" fill-opacity="0.4"/>
<path d="M40.8036 77.3786H41.9101C42.4181 77.3786 42.8584 77.3044 43.2306 77.1555C43.6027 77.0066 43.8829 76.8146 44.0709 76.5795C44.4257 76.1229 44.6032 75.6489 44.6032 75.1576C44.6032 74.5416 44.3665 74.0156 43.8933 73.5797C43.4197 73.1438 42.7589 72.9257 41.9101 72.9257H39.0185V80.2126H40.8036V77.3786ZM40.8036 74.275H41.9101C42.1747 74.275 42.3868 74.3581 42.5469 74.5243C42.7071 74.6905 42.7868 74.9032 42.7868 75.1626C42.7868 75.4219 42.7086 75.6315 42.552 75.7904C42.3953 75.9497 42.1817 76.029 41.9101 76.029H40.8036V74.275Z" fill="black" fill-opacity="0.4"/>
<path d="M51.4716 78.9879H54.1021L54.5095 80.2129H56.4195L53.8831 72.9052H51.7119L49.165 80.2129H51.0646L51.4716 78.9879ZM52.7866 75.0432L53.6529 77.6382H51.92L52.7866 75.0432Z" fill="black" fill-opacity="0.4"/>
<path d="M68.0271 80.2124V72.9047H66.242V77.5035L63.2568 72.9047H61.4717V80.2124H63.2568V75.614L66.242 80.2124H68.0271Z" fill="black" fill-opacity="0.4"/>
<path d="M76.576 76.2161L75.167 72.9254H73.142L75.6784 77.8666V80.2124H77.4632V77.8666L80 72.9254H77.975L76.576 76.2161Z" fill="black" fill-opacity="0.4"/>
</svg>
