<svg width="80" height="90" viewBox="0 0 80 90" fill="none" xmlns="http://www.w3.org/2000/svg">
<path d="M10.2532 86.8308H10.8563V89.7906H11.2522V86.8308H11.8536V86.3419H10.2532V86.8308Z" fill="black" fill-opacity="0.4"/>
<path d="M15.2424 89.7902H15.6688L15.9609 88.9527H17.0839L17.3591 89.7902H17.7924L16.5404 86.1246L15.2424 89.7902ZM16.1258 88.4633L16.5335 87.2909L16.9226 88.4633H16.1258Z" fill="black" fill-opacity="0.4"/>
<path d="M22.7273 86.766C23.0366 86.766 23.2985 86.9545 23.514 87.331L23.796 86.9757C23.6319 86.7287 23.4648 86.5501 23.2949 86.4396C23.1171 86.3295 22.9256 86.2743 22.7208 86.2743C22.3393 86.2743 22.0153 86.449 21.7491 86.7991C21.4829 87.1477 21.3499 87.5718 21.3499 88.0721C21.3499 88.5619 21.4807 88.9818 21.7426 89.3319C22.0041 89.6805 22.3185 89.8548 22.6853 89.8548C23.061 89.8548 23.3711 89.6748 23.6146 89.3144C23.722 89.1538 23.7986 88.9809 23.8438 88.7962C23.8902 88.5969 23.9135 88.3673 23.9135 88.1085V87.9946H22.8297V88.4835H23.4838C23.4655 88.7263 23.3789 88.9346 23.2238 89.1089C23.0686 89.2818 22.8936 89.3683 22.6989 89.3683C22.4701 89.3683 22.2578 89.253 22.062 89.022C21.8525 88.7735 21.7476 88.457 21.7476 88.0725C21.7476 87.7003 21.8417 87.3905 22.0296 87.1434C22.2168 86.8921 22.4496 86.766 22.7273 86.766Z" fill="black" fill-opacity="0.4"/>
<path d="M29.5167 86.3419V89.7906H30.6835V89.3013H29.9122V86.3419H29.5167Z" fill="black" fill-opacity="0.4"/>
<path d="M34.9338 86.3419H34.5379V89.7906H34.9338V86.3419Z" fill="black" fill-opacity="0.4"/>
<path d="M41.3517 89.9998V86.3413H40.9558V88.7381L39.0432 86.1066V89.79H39.4387V87.3753L41.3517 89.9998Z" fill="black" fill-opacity="0.4"/>
<path d="M46.9067 86.8308V86.3419H45.4593V89.7906H46.9067V89.3013H45.8552V88.1487H46.8758V87.6598H45.8552V86.8308H46.9067Z" fill="black" fill-opacity="0.4"/>
<path d="M54.8041 89.7906V86.3419H54.4082V87.691H53.2765V86.3419H52.8807V89.7906H53.2765V88.1804H54.4082V89.7906H54.8041Z" fill="black" fill-opacity="0.4"/>
<path d="M60.3587 86.8308V86.3419H58.9113V89.7906H60.3587V89.3013H59.3072V88.1487H60.3282V87.6598H59.3072V86.8308H60.3587Z" fill="black" fill-opacity="0.4"/>
<path d="M65.8272 87.3537C65.8272 87.041 65.7425 86.7892 65.5725 86.5989C65.4184 86.4279 65.168 86.3419 64.8217 86.3419H64.3579V89.7906H64.7538V88.3792H64.8253L65.5743 89.7906H66.0586L65.2467 88.3211C65.4209 88.272 65.5614 88.1596 65.6681 87.9838C65.7737 87.8077 65.8272 87.5979 65.8272 87.3537ZM64.8792 87.9258H64.7535V86.8313H64.8947C65.2593 86.8313 65.4418 87.008 65.4418 87.3608C65.4414 87.7373 65.2543 87.9258 64.8792 87.9258Z" fill="black" fill-opacity="0.4"/>
<path d="M69.9313 89.7906H71.3787V89.3013H70.3272V88.1487H71.3482V87.6598H70.3272V86.8308H71.3787V86.3419H69.9313V89.7906Z" fill="black" fill-opacity="0.4"/>
<path d="M7.20711 80.1513C7.07563 80.3785 6.92331 80.5812 6.75051 80.7592C6.57735 80.9293 6.3733 81.0663 6.13799 81.1697C5.90268 81.2732 5.64476 81.3247 5.36455 81.3247C4.99093 81.3247 4.65251 81.2274 4.35002 81.0328C4.04717 80.8382 3.78529 80.5684 3.56399 80.2236C3.3427 79.8745 3.17206 79.4702 3.05279 79.0096C2.93352 78.5491 2.87387 78.0432 2.87387 77.4915C2.87387 76.8665 2.93101 76.3006 3.04525 75.7938C3.15949 75.2869 3.31684 74.8689 3.51766 74.5401C3.7289 74.1996 3.97857 73.9416 4.2674 73.7673C4.55623 73.593 4.86842 73.5057 5.20396 73.5057C5.49818 73.5057 5.75935 73.5836 5.98783 73.7399C6.21596 73.8963 6.41318 74.1122 6.57915 74.3876C6.72788 74.6308 6.85757 74.9275 6.96822 75.2784C7.07887 75.6289 7.16184 75.9544 7.21753 76.2543H7.64361L7.5969 73.1778H7.18126L6.96857 73.5911C6.70201 73.4008 6.4218 73.2525 6.12757 73.1471C5.83335 73.0418 5.50464 72.9889 5.14144 72.9889C4.65323 72.9889 4.19483 73.0985 3.76589 73.3177C3.33659 73.5368 2.96477 73.8472 2.65006 74.2487C2.33177 74.6545 2.08246 75.1381 1.90247 75.6998C1.72249 76.2614 1.63269 76.8873 1.63269 77.5769C1.63269 78.2666 1.72429 78.8859 1.90787 79.4357C2.09108 79.9855 2.33717 80.4508 2.64504 80.832C2.95651 81.2132 3.31396 81.5056 3.71704 81.7082C4.12012 81.9109 4.54186 82.0124 4.98122 82.0124C5.65948 82.0124 6.24433 81.8292 6.73578 81.4621C7.22723 81.0951 7.6217 80.4843 7.91951 79.6289L7.53007 79.4102C7.44601 79.6771 7.3386 79.9241 7.20711 80.1513Z" fill="black" fill-opacity="0.4"/>
<path d="M19.5376 79.3666C19.7247 78.8073 19.8182 78.1852 19.8182 77.4998C19.8182 76.8187 19.7262 76.1975 19.5426 75.6364C19.359 75.0752 19.1043 74.5957 18.7788 74.1985C18.4638 73.8093 18.0895 73.5074 17.6566 73.2925C17.2237 73.0775 16.7631 72.9703 16.2745 72.9703C15.8036 72.9703 15.3523 73.0757 14.9209 73.2863C14.4898 73.497 14.1112 73.8012 13.7857 74.1985C13.4566 74.6 13.1987 75.0752 13.0115 75.6241C12.8243 76.1734 12.7309 76.7988 12.7309 77.4998C12.7309 78.1404 12.82 78.7412 12.9986 79.3024C13.1771 79.864 13.4221 80.3411 13.734 80.7341C14.0458 81.1351 14.4187 81.4483 14.8537 81.6736C15.2884 81.8985 15.7623 82.0109 16.2749 82.0109C16.7563 82.0109 17.21 81.9056 17.6361 81.6949C18.0622 81.4842 18.4361 81.1843 18.7584 80.795C19.0907 80.4025 19.3504 79.9259 19.5376 79.3666ZM18.4282 79.0624C18.3398 79.5286 18.1987 79.9462 18.0047 80.3151C17.8175 80.6798 17.575 80.9637 17.2772 81.1663C16.979 81.3689 16.6449 81.4705 16.2745 81.4705C15.8797 81.4705 15.5402 81.3704 15.2561 81.1696C14.9719 80.9689 14.7366 80.6902 14.5494 80.3335C14.3551 79.9689 14.2132 79.5513 14.1234 79.0808C14.0332 78.6108 13.9883 78.0837 13.9883 77.4998C13.9883 76.9731 14.0307 76.4701 14.1155 75.992C14.2003 75.514 14.3292 75.0965 14.5024 74.7393C14.6859 74.3667 14.9231 74.0686 15.214 73.8456C15.505 73.6227 15.8585 73.5112 16.2742 73.5112C16.6446 73.5112 16.974 73.6075 17.2614 73.8003C17.5488 73.993 17.7881 74.2613 17.9785 74.6061C18.1689 74.9547 18.3136 75.3761 18.4124 75.8706C18.5112 76.3652 18.5604 76.9084 18.5604 77.5003C18.5608 78.0756 18.5166 78.5966 18.4282 79.0624Z" fill="black" fill-opacity="0.4"/>
<path d="M25.8771 80.5585C25.8322 80.7937 25.7488 80.968 25.6278 81.0814C25.5343 81.1707 25.4018 81.2378 25.2301 81.2822C25.0587 81.3266 24.8949 81.3573 24.739 81.3734V81.8051H27.7161V81.3734C27.6431 81.3696 27.4876 81.3289 27.2483 81.2519C27.0094 81.175 26.8517 81.0937 26.7755 81.0087C26.6645 80.8953 26.5823 80.7087 26.5287 80.4494C26.4752 80.1901 26.4483 79.8108 26.4483 79.3124V74.1622H26.5158L28.9109 81.6653H29.1706L31.6854 74.3143H31.7633V80.5892C31.7633 80.7394 31.7382 80.8641 31.6879 80.9633C31.6376 81.0625 31.5589 81.1509 31.4515 81.2278C31.3822 81.2727 31.255 81.3067 31.0696 81.3313C30.8843 81.3554 30.7327 81.37 30.6152 81.3738V81.8056H33.8728V81.3738C33.7794 81.37 33.653 81.3507 33.4935 81.3162C33.334 81.2817 33.2233 81.2444 33.1612 81.2038C33.0433 81.131 32.9636 81.0455 32.9223 80.9482C32.8806 80.8509 32.8597 80.7314 32.8597 80.5897V74.3687C32.8597 74.235 32.8806 74.1112 32.9223 73.9979C32.9639 73.8845 33.0433 73.8033 33.1612 73.7546C33.2305 73.7263 33.3404 73.696 33.491 73.6634C33.6415 73.6308 33.7654 73.6129 33.8624 73.6086V73.1769H31.4583C31.4547 73.2501 31.4296 73.3951 31.3829 73.6119C31.3362 73.8288 31.2798 74.0366 31.2144 74.2355L29.4113 79.653L27.2993 73.1769H24.7857V73.6086C24.938 73.6167 25.0921 73.6474 25.248 73.6998C25.4039 73.7522 25.5354 73.8335 25.6428 73.9431C25.7398 74.0446 25.8142 74.1764 25.8663 74.3385C25.9184 74.5005 25.9442 74.7093 25.9442 74.9648V79.379C25.9446 79.9303 25.922 80.3233 25.8771 80.5585Z" fill="black" fill-opacity="0.4"/>
<path d="M44.5385 76.4995C44.6894 76.1528 44.7645 75.7546 44.7645 75.3049C44.7645 74.6606 44.5507 74.1448 44.1229 73.7574C43.695 73.3706 43.1382 73.1769 42.4524 73.1769H39.0855V73.6086C39.1789 73.6167 39.2906 73.6318 39.4207 73.6544C39.5504 73.6766 39.6812 73.7144 39.813 73.7669C39.9409 73.8235 40.0224 73.9086 40.0573 74.0224C40.0918 74.1358 40.1094 74.2638 40.1094 74.4055V80.6317C40.1094 80.79 40.086 80.9194 40.0393 81.0209C39.9926 81.1225 39.9172 81.1995 39.8133 81.2519C39.7512 81.2845 39.6409 81.3105 39.4832 81.3308C39.3255 81.3511 39.2051 81.3653 39.1222 81.3733V81.8051H42.2864V81.3733C42.1549 81.3695 42.0102 81.3549 41.8524 81.3308C41.6947 81.3062 41.5848 81.2803 41.5226 81.2519C41.398 81.1952 41.3157 81.113 41.2758 81.0058C41.236 80.8986 41.2162 80.7739 41.2162 80.6317V78.0172H42.0425C42.3956 78.0172 42.7301 77.9643 43.0451 77.8589C43.3602 77.7536 43.6497 77.5873 43.9127 77.3606C44.1793 77.1329 44.388 76.8462 44.5385 76.4995ZM43.4188 76.1712C43.3807 76.38 43.3027 76.5817 43.1849 76.7763C43.0671 76.9789 42.8914 77.148 42.6575 77.2841C42.4236 77.4201 42.1197 77.4877 41.7457 77.4877H41.2158V73.6752H41.9483C42.2426 73.6752 42.4887 73.7281 42.6862 73.8335C42.8835 73.9388 43.043 74.0866 43.1644 74.2775C43.2786 74.456 43.3591 74.6644 43.4058 74.9039C43.4525 75.1433 43.4759 75.3781 43.4759 75.6091C43.4759 75.7749 43.4568 75.9624 43.4188 76.1712Z" fill="black" fill-opacity="0.4"/>
<path d="M56.7418 81.3727C56.6553 81.3689 56.5478 81.3472 56.4199 81.3089C56.2917 81.2702 56.1879 81.2229 56.1081 81.1657C55.9903 81.0727 55.8987 80.9773 55.8326 80.88C55.7668 80.7827 55.7079 80.6551 55.6558 80.4969L53.1982 73.0548H52.7826C52.4327 74.1087 52.0343 75.3108 51.5877 76.6604C51.1408 78.0104 50.732 79.2262 50.3616 80.3084C50.2887 80.5191 50.2143 80.6844 50.1381 80.8039C50.062 80.9234 49.9546 81.0382 49.8159 81.1473C49.7293 81.212 49.6183 81.264 49.4836 81.3023C49.3485 81.3405 49.2357 81.3641 49.1459 81.3722V81.8039H51.9225V81.3722C51.6488 81.3561 51.4027 81.3032 51.1846 81.214C50.9666 81.1247 50.8574 80.999 50.8574 80.837C50.8574 80.768 50.866 80.6788 50.8832 80.5696C50.9005 80.4601 50.9317 80.3183 50.977 80.144C51.0255 79.9655 51.0801 79.7713 51.1408 79.5602C51.2015 79.3495 51.2806 79.102 51.3776 78.8186H53.9656L54.5763 80.752C54.5903 80.7926 54.6004 80.8394 54.6076 80.8918C54.6144 80.9447 54.618 80.9891 54.618 81.0255C54.618 81.1147 54.5285 81.1898 54.3503 81.2503C54.1718 81.3112 53.9476 81.3514 53.6775 81.3717V81.8035H56.7422L56.7418 81.3727ZM51.5583 78.2777L52.659 74.9296L53.7759 78.2777H51.5583Z" fill="black" fill-opacity="0.4"/>
<path d="M67.6333 81.8901V75.5727C67.6333 75.1311 67.6548 74.7659 67.6983 74.4783C67.7418 74.1906 67.8255 73.996 67.9505 73.8944C68.0371 73.8297 68.1808 73.7669 68.3816 73.7059C68.5824 73.645 68.7315 73.6129 68.8285 73.6086V73.1769H65.8306V73.6086C65.9448 73.6167 66.1119 73.6573 66.3321 73.73C66.5519 73.8033 66.7104 73.8779 66.8074 73.9549C66.9112 74.0442 66.9909 74.2232 67.0462 74.4929C67.1016 74.7626 67.1296 75.1486 67.1296 75.6511V79.7546L62.9857 73.1769H60.8791V73.6086C61.0105 73.6167 61.183 73.6686 61.396 73.7636C61.6091 73.859 61.7779 73.9733 61.9026 74.107C61.996 74.2085 62.0707 74.3521 62.126 74.5387C62.1813 74.7253 62.209 74.9119 62.209 75.098V79.3483C62.209 79.9118 62.1864 80.31 62.1415 80.5429C62.0966 80.7763 62.0132 80.9492 61.8921 81.063C61.8368 81.1197 61.6981 81.1834 61.4765 81.2548C61.2548 81.3256 61.0971 81.3653 61.0037 81.3734V81.8051H64.0275V81.3734C63.9478 81.3696 63.7832 81.3289 63.5339 81.252C63.2846 81.175 63.12 81.0918 63.0403 81.0025C62.9293 80.8892 62.847 80.6983 62.7935 80.431C62.74 80.1636 62.713 79.7805 62.713 79.2817V74.8311L67.1813 81.8901H67.6333Z" fill="black" fill-opacity="0.4"/>
<path d="M77.4367 73.1769V73.6086C77.537 73.6209 77.6462 73.6318 77.764 73.6422C77.8818 73.6521 77.991 73.6733 78.0913 73.7059C78.1883 73.7385 78.2662 73.7829 78.3251 73.8396C78.3841 73.8963 78.4135 73.9709 78.4135 74.064C78.4135 74.1774 78.2706 74.5208 77.985 75.0937C77.6993 75.6672 77.2851 76.4664 76.7416 77.4914C76.4686 76.9161 76.2476 76.4489 76.0781 76.0904C75.9088 75.7319 75.7429 75.3719 75.5805 75.0115C75.5252 74.8859 75.4663 74.755 75.4041 74.6195C75.342 74.4839 75.2884 74.3634 75.2435 74.2576C75.2054 74.1646 75.176 74.0876 75.1552 74.0271C75.1343 73.9667 75.1239 73.9242 75.1239 73.8996C75.1239 73.8108 75.1968 73.7423 75.342 73.6937C75.4875 73.6455 75.7368 73.6171 76.0903 73.6086V73.1769H72.944V73.6086C73.0374 73.6167 73.1423 73.637 73.2583 73.6696C73.3744 73.7021 73.4739 73.7484 73.5572 73.8094C73.6715 73.8987 73.7728 74.0021 73.8612 74.1193C73.9495 74.2369 74.0508 74.4112 74.1651 74.6422C74.3522 75.0314 74.5721 75.4995 74.825 76.0465C75.0779 76.5935 75.3082 77.1027 75.5162 77.5727C75.6096 77.7834 75.6901 77.9751 75.7576 78.1471C75.8252 78.3195 75.8589 78.4381 75.8589 78.5028V80.6005C75.8589 80.7545 75.8356 80.8844 75.7889 80.9898C75.7422 81.0951 75.6563 81.1782 75.5316 81.2392C75.4555 81.2755 75.3204 81.3053 75.1264 81.3275C74.9324 81.3497 74.7869 81.3653 74.6899 81.3733V81.8051H78.1398V81.3733C78.0255 81.3695 77.8747 81.344 77.6878 81.2973C77.5007 81.2505 77.371 81.2113 77.2981 81.1787C77.177 81.114 77.0911 81.0276 77.0409 80.9203C76.9906 80.8131 76.9654 80.6861 76.9654 80.5401V78.8925C76.9654 78.5925 76.9862 78.3634 77.0275 78.2057C77.0689 78.0479 77.154 77.8391 77.2823 77.5793C77.6253 76.8741 77.9109 76.2926 78.1398 75.8344C78.3683 75.3762 78.6179 74.9246 78.8877 74.4783C79.026 74.2553 79.1198 74.1174 79.1683 74.0649C79.2168 74.0125 79.3084 73.9374 79.4438 73.8401C79.4992 73.7914 79.5911 73.7418 79.7194 73.6913C79.8476 73.6407 79.9411 73.6133 80 73.6091V73.1774L77.4367 73.1769Z" fill="black" fill-opacity="0.4"/>
<path d="M13.0844 43.3332L13.0613 43.3698L26.1225 63.3332L39.1837 43.3698L39.1605 43.3332H13.0844Z" fill="black" fill-opacity="0.4"/>
<path d="M39.2067 43.3332L39.1835 43.3698L52.2447 63.3332L65.3059 43.3698L65.2828 43.3332H39.2067Z" fill="black" fill-opacity="0.4"/>
<path d="M40.7938 46.0595L40.8158 46.0923L40.7974 46.0595H40.7938Z" fill="black" fill-opacity="0.4"/>
<path d="M13.0709 43.3333L13.094 43.2937L26.1224 21.7007L26.0993 21.6667H0L13.0477 43.2937L13.0709 43.3333Z" fill="black" fill-opacity="0.4"/>
<path d="M65.2713 43.2937L65.2944 43.3333L65.3176 43.2937L78.3672 21.6667H52.2679L52.2448 21.7007L65.2713 43.2937Z" fill="black" fill-opacity="0.4"/>
<path d="M39.1837 0.039168L39.1605 0H13.0613L26.1109 21.6666H26.1571L39.1837 0.039168Z" fill="black" fill-opacity="0.4"/>
<path d="M52.2216 21.6666H52.2678L65.3059 0H39.2297H39.1835L39.2066 0.039168L52.2216 21.6666Z" fill="black" fill-opacity="0.4"/>
<path d="M26.1494 21.7007L39.1605 43.2937H39.1644L39.1836 43.3333L39.2067 43.2937L52.2217 21.7007L52.2448 21.6667H52.1986H26.1686H26.1224L26.1455 21.7007H26.1494Z" fill="black" fill-opacity="0.4"/>
</svg>
