<svg width="24" height="24" viewBox="0 0 24 24" fill="none" xmlns="http://www.w3.org/2000/svg">
<path fill-rule="evenodd" clip-rule="evenodd" d="M20 20H16.8V14.4008C16.8 12.8648 16.1224 12.008 14.9072 12.008C13.5848 12.008 12.8 12.9008 12.8 14.4008V20H9.60002V9.6H12.8V10.7696C12.8 10.7696 13.804 9.008 16.0664 9.008C18.3296 9.008 20 10.3888 20 13.2464V20ZM5.95362 7.9368C5.69605 7.93586 5.4412 7.88418 5.20361 7.78471C4.96602 7.68525 4.75036 7.53996 4.56894 7.35712C4.38752 7.17429 4.2439 6.95751 4.14628 6.71916C4.04867 6.48081 3.99896 6.22556 4.00002 5.968C3.99907 5.7105 4.04885 5.45534 4.14651 5.21708C4.24418 4.97883 4.38782 4.76214 4.56923 4.57939C4.75064 4.39665 4.96626 4.25142 5.2038 4.15201C5.44133 4.0526 5.69612 4.00094 5.95362 4C6.47351 4.00212 6.97129 4.21062 7.33749 4.57967C7.70369 4.94872 7.90833 5.4481 7.90642 5.968C7.90757 6.22553 7.85797 6.48076 7.76044 6.7191C7.66291 6.95745 7.51936 7.17423 7.33801 7.35708C7.15665 7.53992 6.94104 7.68523 6.7035 7.7847C6.46596 7.88417 6.21114 7.93586 5.95362 7.9368ZM4.00002 20H8.00002V9.6H4.00002V20Z" fill="black"/>
</svg>
