<svg width="47" height="47" viewBox="0 0 47 47" fill="none" xmlns="http://www.w3.org/2000/svg">
<path d="M23.0547 0.267742C23.2442 -0.0892924 23.7558 -0.0892936 23.9453 0.26774L26.8905 5.81675C27.0376 6.09387 27.3994 6.17077 27.6465 5.97743L32.5941 2.1061C32.9124 1.85701 33.3798 2.06509 33.4077 2.46833L33.8413 8.73555C33.863 9.04853 34.1622 9.26593 34.4666 9.18981L40.561 7.66555C40.9532 7.56748 41.2955 7.94764 41.1569 8.32737L39.004 14.2291C38.8965 14.5239 39.0814 14.8442 39.3904 14.8984L45.578 15.9848C45.9761 16.0547 46.1342 16.5412 45.8532 16.8318L41.4859 21.3476C41.2678 21.5732 41.3064 21.941 41.5667 22.1162L46.7774 25.6254C47.1127 25.8512 47.0592 26.3599 46.6843 26.5111L40.8578 28.8602C40.5669 28.9775 40.4526 29.3292 40.619 29.5952L43.952 34.9204C44.1664 35.263 43.9106 35.706 43.5067 35.6916L37.2285 35.4678C36.9149 35.4566 36.6675 35.7315 36.7114 36.0421L37.5902 42.2625C37.6468 42.6628 37.2329 42.9635 36.8697 42.786L31.2253 40.0279C30.9435 39.8902 30.6056 40.0406 30.5193 40.3423L28.7921 46.3824C28.681 46.771 28.1806 46.8774 27.921 46.5675L23.8864 41.7521C23.6849 41.5117 23.3151 41.5117 23.1136 41.7521L19.079 46.5675C18.8194 46.8774 18.319 46.771 18.2079 46.3824L16.4807 40.3423C16.3944 40.0406 16.0565 39.8902 15.7747 40.0279L10.1303 42.786C9.7671 42.9634 9.35324 42.6628 9.40978 42.2625L10.2886 36.0421C10.3325 35.7315 10.0851 35.4566 9.77152 35.4678L3.49331 35.6916C3.08935 35.706 2.83357 35.263 3.04802 34.9204L6.38097 29.5952C6.54742 29.3292 6.43313 28.9775 6.14216 28.8602L0.31568 26.5111C-0.059206 26.3599 -0.11268 25.8512 0.22259 25.6254L5.43334 22.1162C5.69356 21.941 5.73222 21.5732 5.51412 21.3476L1.14684 16.8318C0.865836 16.5412 1.02392 16.0547 1.42204 15.9848L7.60959 14.8984C7.9186 14.8442 8.10353 14.5239 7.99601 14.2291L5.84305 8.32737C5.70453 7.94764 6.04683 7.56748 6.43896 7.66555L12.5334 9.18981C12.8378 9.26593 13.137 9.04853 13.1587 8.73555L13.5923 2.46833C13.6202 2.06509 14.0876 1.85702 14.4059 2.1061L19.3535 5.97743C19.6006 6.17077 19.9624 6.09387 20.1095 5.81675L23.0547 0.267742Z" fill="black" fill-opacity="0.1"/>
</svg>
