<svg width="18" height="18" viewBox="0 0 18 18" fill="none" xmlns="http://www.w3.org/2000/svg">
<path d="M8.26294 0.51319C8.51612 -0.171029 9.48387 -0.17103 9.73706 0.51319L11.7048 5.83089C11.7844 6.04601 11.954 6.21561 12.1691 6.29521L17.4868 8.26294C18.171 8.51612 18.171 9.48387 17.4868 9.73706L12.1691 11.7048C11.954 11.7844 11.7844 11.954 11.7048 12.1691L9.73706 17.4868C9.48388 18.171 8.51613 18.171 8.26294 17.4868L6.29521 12.1691C6.21561 11.954 6.04601 11.7844 5.83089 11.7048L0.51319 9.73706C-0.171029 9.48388 -0.17103 8.51613 0.51319 8.26294L5.83089 6.29521C6.04601 6.21561 6.21561 6.04601 6.29521 5.83089L8.26294 0.51319Z" fill="#181818"/>
</svg>
