<svg width="24" height="24" viewBox="0 0 24 24" fill="none" xmlns="http://www.w3.org/2000/svg">
<path d="M10.6766 4.31233C11.0931 3.03033 12.9068 3.03033 13.3233 4.31232L14.4992 7.93132C14.6855 8.50465 15.2198 8.89282 15.8226 8.89282H19.6278C20.9758 8.89282 21.5363 10.6177 20.4457 11.41L17.3672 13.6467C16.8795 14.001 16.6755 14.6291 16.8617 15.2024L18.0376 18.8214C18.4542 20.1034 16.9869 21.1695 15.8964 20.3772L12.8178 18.1405C12.3301 17.7862 11.6698 17.7862 11.1821 18.1405L8.10355 20.3772C7.01302 21.1695 5.54573 20.1034 5.96227 18.8214L7.13815 15.2024C7.32444 14.6291 7.12037 14.001 6.63267 13.6467L3.55416 11.41C2.46364 10.6177 3.02409 8.89282 4.37206 8.89282H8.1773C8.78013 8.89282 9.3144 8.50465 9.50068 7.93132L10.6766 4.31233Z" fill="#E3572B"/>
</svg>
