<svg width="10" height="10" viewBox="0 0 10 10" fill="none" xmlns="http://www.w3.org/2000/svg">
<path d="M1.40458 8.17614C1.84392 8.58752 2.36788 8.90587 2.976 9.13072C3.58412 9.35511 4.25193 9.46778 4.97991 9.46778C5.7167 9.45936 6.39137 9.33829 7.00389 9.10502C7.61642 8.87175 8.1448 8.54732 8.58853 8.13173C9.03276 7.71615 9.37864 7.21969 9.62718 6.64283C9.87571 6.06596 9.99998 5.42552 9.99998 4.7215C9.99998 4.00065 9.87571 3.34713 9.62718 2.76185C9.37864 2.17657 9.03227 1.67591 8.58853 1.26032C8.1448 0.844736 7.61642 0.528716 7.00389 0.312275C6.39137 0.0958345 5.7167 -0.00794123 4.97991 0.000473308C4.25193 0.000473308 3.58363 0.113139 2.976 0.337526C2.36788 0.562382 1.84441 0.882598 1.40458 1.29818C0.965249 1.71377 0.620822 2.21631 0.37278 2.80579C0.124248 3.39528 0 4.05067 0 4.77152C0 5.47553 0.124248 6.11598 0.37278 6.69284C0.620822 7.27111 0.96476 7.76477 1.40458 8.17614ZM1.99021 3.41116C2.1453 3.02129 2.36496 2.67958 2.6492 2.38694C2.93345 2.0943 3.27296 1.86523 3.66778 1.69975C4.06259 1.53426 4.50437 1.45152 4.99263 1.45152C5.48089 1.45152 5.92465 1.53426 6.32435 1.69975C6.72357 1.86523 7.06552 2.0943 7.34977 2.38694C7.63401 2.67958 7.85369 3.02129 8.00927 3.41116C8.16436 3.8015 8.24215 4.2213 8.24215 4.67101C8.24215 5.15438 8.16436 5.59988 8.00927 6.00705C7.85369 6.41422 7.63401 6.76623 7.34977 7.06308C7.06552 7.35993 6.72406 7.5932 6.32435 7.7629C5.92514 7.93259 5.48089 8.0172 4.99263 8.0172C4.50437 8.0172 4.06259 7.93259 3.66778 7.7629C3.27247 7.5932 2.93296 7.35993 2.6492 7.06308C2.36496 6.76623 2.1453 6.41422 1.99021 6.00705C1.83463 5.59988 1.75685 5.15438 1.75685 4.67101C1.75734 4.2213 1.83512 3.8015 1.99021 3.41116Z" fill="black" fill-opacity="0.4"/>
</svg>
