<svg width="9" height="10" viewBox="0 0 9 10" fill="none" xmlns="http://www.w3.org/2000/svg">
<path d="M1.48526 8.63561C1.94934 9.07016 2.50281 9.40644 3.14518 9.64395C3.78755 9.88098 4.49297 9.99999 5.26195 9.99999C5.99321 9.99999 6.68262 9.86567 7.32964 9.59654C7.97666 9.32792 8.52549 8.89781 8.97561 8.30624L7.51255 7.31173C7.18439 7.71517 6.8304 8.00848 6.45056 8.19217C6.07072 8.37587 5.67902 8.46772 5.27592 8.46772C4.76017 8.46772 4.2935 8.37834 3.87645 8.19909C3.45889 8.01984 3.10022 7.77343 2.80048 7.45987C2.50023 7.1463 2.2682 6.77447 2.10438 6.34437C1.94004 5.91426 1.85787 5.44367 1.85787 4.93308C1.85787 4.45804 1.94004 4.0146 2.10438 3.60228C2.2682 3.19045 2.50023 2.82949 2.80048 2.52037C3.10074 2.21125 3.4594 1.96928 3.87645 1.79448C4.2935 1.61967 4.76017 1.53227 5.27592 1.53227C5.62269 1.53227 5.96739 1.59499 6.3095 1.72041C6.65161 1.84584 7.00613 2.09668 7.3715 2.47296L8.74977 1.50511C8.25262 0.958472 7.71567 0.570835 7.13894 0.342699C6.5622 0.114068 5.93635 0 5.26091 0C4.49193 0 3.78602 0.11901 3.14417 0.356035C2.5018 0.593554 1.9483 0.931805 1.48422 1.3708C1.02015 1.80979 0.656334 2.34063 0.393806 2.96331C0.131277 3.58599 0 4.2783 0 5.03974C0 5.78341 0.131277 6.45992 0.393806 7.06928C0.657368 7.67961 1.02067 8.20107 1.48526 8.63561Z" fill="black" fill-opacity="0.4"/>
</svg>
