<svg width="7" height="9" viewBox="0 0 7 9" fill="none" xmlns="http://www.w3.org/2000/svg">
<path d="M1.67649 5.27553H2.87394C3.37053 5.27553 3.84709 5.24189 4.30408 5.17371C4.76059 5.10599 5.16236 4.97663 5.50792 4.78608C5.85348 4.59553 6.12865 4.32653 6.33295 3.97906C6.53677 3.6316 6.63891 3.17391 6.63891 2.60601C6.63891 2.10629 6.54362 1.68877 6.353 1.35391C6.16189 1.01906 5.90724 0.752373 5.58808 0.552953C5.26891 0.354001 4.89842 0.212031 4.47711 0.127032C4.05579 0.0425008 3.61882 0 3.16671 0H0V9.00004H1.67649V5.27553ZM1.67649 1.37305H2.87394C3.09584 1.37305 3.32655 1.38566 3.56604 1.41135C3.80554 1.43704 4.02254 1.49402 4.21805 1.58275C4.41307 1.67195 4.57291 1.79898 4.69706 1.9643C4.82121 2.12963 4.88327 2.35194 4.88327 2.63169C4.88327 2.93666 4.81436 3.17437 4.67701 3.34343C4.53967 3.51296 4.36225 3.64 4.14475 3.72453C3.92725 3.80953 3.6902 3.86043 3.43311 3.87724C3.17553 3.89452 2.92722 3.90293 2.68821 3.90293H1.67697L1.67649 1.37305Z" fill="black" fill-opacity="0.4"/>
</svg>
