<svg width="16" height="16" viewBox="0 0 16 16" fill="none" xmlns="http://www.w3.org/2000/svg">
<path d="M2.33333 13.6667C2.88667 14.22 3.78 14.22 4.33333 13.6667L13 4.99999C13.5533 4.44666 13.5533 3.55332 13 2.99999C12.4467 2.44666 11.5533 2.44666 11 2.99999L2.33333 11.6667C1.78 12.22 1.78 13.1133 2.33333 13.6667Z" stroke="#FFF8F2" stroke-width="1.5" stroke-linecap="round" stroke-linejoin="round"/>
<path d="M12.0067 5.99335L10.0067 3.99335" stroke="#FFF8F2" stroke-width="1.5" stroke-linecap="round" stroke-linejoin="round"/>
<path d="M5.66669 1.62668L6.66669 1.33334L6.37335 2.33334L6.66669 3.33334L5.66669 3.04001L4.66669 3.33334L4.96002 2.33334L4.66669 1.33334L5.66669 1.62668Z" stroke="#FFF8F2" stroke-linecap="round" stroke-linejoin="round"/>
<path d="M3 5.62668L4 5.33334L3.70667 6.33334L4 7.33334L3 7.04001L2 7.33334L2.29333 6.33334L2 5.33334L3 5.62668Z" stroke="#FFF8F2" stroke-linecap="round" stroke-linejoin="round"/>
<path d="M13 8.95999L14 8.66666L13.7067 9.66666L14 10.6667L13 10.3733L12 10.6667L12.2933 9.66666L12 8.66666L13 8.95999Z" stroke="#FFF8F2" stroke-linecap="round" stroke-linejoin="round"/>
</svg>
