<svg width="16" height="16" viewBox="0 0 16 16" fill="none" xmlns="http://www.w3.org/2000/svg">
<path d="M11.1333 12.6532H4.86666C4.58666 12.6532 4.27333 12.4332 4.18 12.1666L1.42 4.44658C1.02666 3.33991 1.48666 2.99991 2.43333 3.67991L5.03333 5.53991C5.46666 5.83991 5.96 5.68658 6.14666 5.19991L7.32 2.07324C7.69333 1.07324 8.31333 1.07324 8.68666 2.07324L9.86 5.19991C10.0467 5.68658 10.54 5.83991 10.9667 5.53991L13.4067 3.79991C14.4467 3.05324 14.9467 3.43324 14.52 4.63991L11.8267 12.1799C11.7267 12.4332 11.4133 12.6532 11.1333 12.6532Z" stroke="#E3572B" stroke-width="1.5" stroke-linecap="round" stroke-linejoin="round"/>
<path d="M4.33333 14.6667H11.6667" stroke="#E3572B" stroke-width="1.5" stroke-linecap="round" stroke-linejoin="round"/>
<path d="M6.33333 9.33325H9.66666" stroke="#E3572B" stroke-width="1.5" stroke-linecap="round" stroke-linejoin="round"/>
</svg>
