<svg width="16" height="16" viewBox="0 0 16 16" fill="none" xmlns="http://www.w3.org/2000/svg">
<path d="M6.66665 2.99999V12C6.66665 12.72 6.3733 13.38 5.90664 13.86L5.87998 13.8867C5.81998 13.9467 5.75332 14.0067 5.69332 14.0533C5.49332 14.2267 5.26664 14.36 5.0333 14.4533C4.95997 14.4867 4.88665 14.5133 4.81331 14.54C4.55331 14.6267 4.27331 14.6667 3.99998 14.6667C3.81998 14.6667 3.63999 14.6467 3.46665 14.6133C3.37999 14.5933 3.29331 14.5733 3.20664 14.5467C3.09998 14.5133 2.99998 14.48 2.89998 14.4333C2.89998 14.4267 2.89998 14.4267 2.89331 14.4333C2.70664 14.34 2.52665 14.2333 2.35999 14.1067L2.35331 14.1C2.26665 14.0333 2.18666 13.9667 2.11332 13.8867C2.03999 13.8067 1.96664 13.7267 1.89331 13.64C1.76664 13.4733 1.65998 13.2933 1.56665 13.1067C1.57332 13.1 1.57332 13.1 1.56665 13.1C1.56665 13.1 1.56664 13.0933 1.55998 13.0867C1.51998 12.9933 1.48664 12.8933 1.45331 12.7933C1.42664 12.7067 1.40664 12.62 1.38664 12.5333C1.3533 12.36 1.33331 12.18 1.33331 12V2.99999C1.33331 1.99999 1.99998 1.33333 2.99998 1.33333H4.99998C5.99998 1.33333 6.66665 1.99999 6.66665 2.99999Z" stroke="#FFF8F2" stroke-width="1.5" stroke-linecap="round" stroke-linejoin="round"/>
<path d="M14.6667 11V13C14.6667 14 14 14.6667 13 14.6667H4C4.27333 14.6667 4.55333 14.6267 4.81333 14.54C4.88667 14.5133 4.95999 14.4867 5.03333 14.4533C5.26666 14.36 5.49334 14.2267 5.69334 14.0533C5.75334 14.0067 5.82 13.9467 5.88 13.8867L5.90666 13.86L10.44 9.33333H13C14 9.33333 14.6667 9.99999 14.6667 11Z" stroke="#FFF8F2" stroke-width="1.5" stroke-linecap="round" stroke-linejoin="round"/>
<path d="M3.20664 14.5467C2.80664 14.4267 2.42666 14.2067 2.11332 13.8867C1.79332 13.5733 1.57331 13.1933 1.45331 12.7933C1.71331 13.6267 2.37331 14.2867 3.20664 14.5467Z" stroke="#FFF8F2" stroke-width="1.5" stroke-linecap="round" stroke-linejoin="round"/>
<path d="M12.2467 7.52667L10.44 9.33334L5.90668 13.86C6.37334 13.38 6.66669 12.72 6.66669 12V5.56L8.47335 3.75334C9.18001 3.04668 10.1267 3.04668 10.8334 3.75334L12.2467 5.16667C12.9534 5.87334 12.9534 6.82 12.2467 7.52667Z" stroke="#FFF8F2" stroke-width="1.5" stroke-linecap="round" stroke-linejoin="round"/>
<path d="M3.99998 12.6667C4.36817 12.6667 4.66665 12.3682 4.66665 12C4.66665 11.6318 4.36817 11.3333 3.99998 11.3333C3.63179 11.3333 3.33331 11.6318 3.33331 12C3.33331 12.3682 3.63179 12.6667 3.99998 12.6667Z" stroke="#FFF8F2" stroke-width="1.5" stroke-linecap="round" stroke-linejoin="round"/>
</svg>
