<svg width="16" height="16" viewBox="0 0 16 16" fill="none" xmlns="http://www.w3.org/2000/svg">
<path d="M8.95334 9.99997H2.93334C1.72001 9.99997 0.946671 8.69998 1.53334 7.63331L3.08667 4.80663L4.54001 2.15996C5.14667 1.05996 6.73334 1.05996 7.34 2.15996L8.80001 4.80663L9.5 6.07996L10.3533 7.63331C10.94 8.69998 10.1667 9.99997 8.95334 9.99997Z" stroke="black" stroke-width="1.5" stroke-linecap="round" stroke-linejoin="round"/>
<path d="M14.6667 10.3333C14.6667 12.7267 12.7267 14.6667 10.3333 14.6667C7.94 14.6667 6 12.7267 6 10.3333C6 10.22 6.00667 10.1133 6.01333 10H8.95333C10.1667 10 10.94 8.70001 10.3533 7.63334L9.5 6.08C9.76667 6.02666 10.0467 6 10.3333 6C12.7267 6 14.6667 7.94 14.6667 10.3333Z" stroke="black" stroke-width="1.5" stroke-linecap="round" stroke-linejoin="round"/>
</svg>
