<svg width="16" height="16" viewBox="0 0 16 16" fill="none" xmlns="http://www.w3.org/2000/svg">
<path d="M14.3133 12.6667V3.33334C14.3133 2.00001 13.6466 1.33334 12.3133 1.33334H9.64661C8.31327 1.33334 7.64661 2.00001 7.64661 3.33334V12.6667C7.64661 14 8.31327 14.6667 9.64661 14.6667H12.3133C13.6466 14.6667 14.3133 14 14.3133 12.6667Z" stroke="#FFF8F2" stroke-width="1.5" stroke-linecap="round"/>
<path d="M7.64661 4H10.9799" stroke="#FFF8F2" stroke-width="1.5" stroke-linecap="round"/>
<path d="M7.64661 12H10.3133" stroke="#FFF8F2" stroke-width="1.5" stroke-linecap="round"/>
<path d="M7.64661 9.29999L10.9799 9.33332" stroke="#FFF8F2" stroke-width="1.5" stroke-linecap="round"/>
<path d="M7.64661 6.66666H9.64661" stroke="#FFF8F2" stroke-width="1.5" stroke-linecap="round"/>
<path d="M3.65998 1.33334C2.57331 1.33334 1.68665 2.22001 1.68665 3.30001V11.94C1.68665 12.24 1.81331 12.6933 1.96665 12.9533L2.51331 13.86C3.13998 14.9067 4.17331 14.9067 4.79998 13.86L5.34665 12.9533C5.49998 12.6933 5.62665 12.24 5.62665 11.94V3.30001C5.62665 2.22001 4.73998 1.33334 3.65998 1.33334Z" stroke="#FFF8F2" stroke-width="1.5" stroke-linecap="round"/>
<path d="M5.62665 4.66666H1.68665" stroke="#FFF8F2" stroke-width="1.5" stroke-linecap="round"/>
</svg>
